<svg preserveAspectRatio="none" width="100%" height="100%" overflow="visible" style="display: block;" viewBox="0 0 213 64" fill="none" xmlns="http://www.w3.org/2000/svg">
<g id="Logo" clip-path="url(#clip0_67_1228)">
<g id="Vector">
<path d="M26.7245 0.351897C23.63 0.914534 20.8168 1.85226 17.8864 3.2823C9.11865 7.57241 2.97653 15.3556 0.655649 25.1783C0.233671 26.96 0.139898 28.0618 0.139898 31.7658C0.116454 35.6105 0.186784 36.5482 0.655649 38.6816C1.96847 44.5658 4.61755 49.5123 8.767 53.8728C13.5729 58.8896 19.5509 62.1482 26.3729 63.4376C29.4908 64.0471 35.0234 63.9768 38.1414 63.3204C46.745 61.5153 53.9421 56.686 58.7011 49.5123C62.1472 44.3548 63.6945 39.4786 63.9289 33.0552C64.1165 27.5226 63.2256 23.1387 60.9751 18.4032C56.3568 8.69768 47.7765 2.20391 37.063 0.351897C34.6249 -0.0935247 29.1157 -0.0700814 26.7245 0.351897ZM36.4535 5.50941C46.5106 7.15043 54.9033 14.6054 57.7633 24.4046C61.397 37.0171 55.5128 50.3094 43.7443 56.0296C37.86 58.8896 31.2959 59.4992 24.8491 57.7878C15.5421 55.2794 8.18092 47.6603 5.8366 38.1189C5.22708 35.5636 5.01609 31.086 5.39118 28.3197C6.56334 19.5988 12.0959 11.886 20.0432 7.90062C22.0828 6.89256 25.7165 5.7204 27.7091 5.43908C30.0535 5.08743 34.156 5.13431 36.4535 5.50941Z" fill="var(--fill-0, white)"/>
<path d="M43.3692 12.472C43.3692 12.6127 43.6036 13.2222 43.8615 13.7849C44.3069 14.6757 44.3304 14.9336 44.0959 15.7307C43.8381 16.6215 43.7912 16.6449 43.2989 16.2933C42.408 15.6603 41.7282 15.8479 40.5091 17.1372C39.3839 18.286 39.337 18.3563 39.4307 19.5285L39.5011 20.7475H38.3055C37.2036 20.7709 37.0864 20.7241 36.5707 19.927C36.1018 19.2237 36.0315 18.8486 36.0784 17.3951C36.1252 15.7541 35.8439 15.0977 35.5392 16.2464C35.1406 17.864 35.1172 19.3878 35.4923 20.1145C35.7033 20.5365 35.7736 20.8647 35.6564 20.8647C35.1172 20.8647 34.4608 19.9035 33.9919 18.4501C33.4996 16.9028 33.0307 16.3871 33.0776 17.3951C33.0776 17.6999 33.2652 18.6376 33.4762 19.4816C33.9685 21.357 33.7809 21.3805 32.093 19.6222C30.8036 18.286 30.3348 18.286 31.2491 19.6222C32.2102 21.0523 32.9135 21.6852 34.0857 22.1307C35.8205 22.7871 35.3516 22.9277 32.937 22.4823C25.8102 21.0992 22.622 20.7709 16.011 20.7709C10.4549 20.7475 9.58752 20.7944 9.25931 21.1226C8.90766 21.4742 8.95455 21.568 9.86884 22.3416C10.9472 23.2794 13.104 24.6156 15.4249 25.7644C17.3003 26.7021 20.4417 27.4523 22.622 27.4757C24.1458 27.4991 24.474 27.4054 25.5055 26.7724C27.0293 25.8347 27.8967 25.6237 31.2022 25.3189C35 24.9907 35.0469 24.9907 35.3516 25.6706C35.6329 26.2567 35.6095 26.2801 34.8359 26.1394C34.2732 26.0222 33.7106 26.116 32.937 26.4676C30.452 27.5695 26.2322 31.6486 23.8879 35.2354C22.3875 37.486 18.8007 44.4486 19.0117 44.6596C19.2461 44.894 26.2088 41.2603 28.6234 39.6427C30.3348 38.5175 31.8351 37.2281 33.6403 35.3526C36.5472 32.3753 37.5787 30.7109 37.5553 29.1636C37.5553 28.179 37.5553 28.179 38.1179 28.4134C38.4227 28.5541 38.6806 28.7885 38.6806 28.9292C38.6806 29.0698 38.5165 30.8281 38.3055 32.8208C37.9773 36.22 37.9069 36.5482 37.1568 37.7907C36.1253 39.549 35.9846 40.6508 36.4535 43.4874C36.7582 45.3863 37.063 46.3241 38.071 48.4105C39.3839 51.083 41.3062 54.0369 42.0329 54.4823C42.619 54.8574 42.83 54.3885 43.041 52.2786C43.463 47.801 42.7831 39.4318 41.4 31.6486C41.0952 29.9138 40.8608 28.4603 40.9077 28.4134C40.9311 28.39 41.2593 28.9526 41.6344 29.7028C42.1033 30.6171 42.7362 31.3907 43.6036 32.094C45.1978 33.3834 45.5729 32.938 44.0256 31.5314C42.2908 29.9607 42.3846 29.7731 44.682 30.3123C47.5655 30.9922 47.7531 30.4296 44.9399 29.5856C43.9787 29.3043 43.4161 28.9761 43.0879 28.5307C42.5487 27.8039 42.5721 27.7805 43.674 28.2493C44.3773 28.5307 44.8227 28.5541 46.2996 28.3431C47.2608 28.2024 48.0579 27.9915 48.0579 27.8742C48.0579 27.757 47.2608 27.6633 46.2996 27.6633C44.8696 27.6633 44.3773 27.5695 43.7443 27.1475C42.9941 26.6552 42.9472 26.538 42.9472 25.4127L42.9707 24.1937L43.7443 24.3109C44.9633 24.4984 45.6901 24.2171 46.7919 23.0449C47.9172 21.8728 48.0813 21.1226 47.378 20.4193C46.9326 19.9739 46.9326 19.9504 47.6359 19.716C48.6674 19.3409 49.1128 19.3878 50.2146 19.9504C50.8007 20.2552 51.2461 20.349 51.3868 20.2083C51.6447 19.9504 49.4176 18.7548 48.7143 18.7548C48.4798 18.7548 47.8938 18.9189 47.378 19.1299L46.4403 19.505L44.1663 17.231L44.5883 16.2933C45.1274 15.0508 45.1274 14.8398 44.4007 13.4098C43.8381 12.2611 43.3692 11.8391 43.3692 12.472Z" fill="var(--fill-0, white)"/>
<path d="M76.5414 17.231C74.3612 17.6296 73.2124 18.1219 72.1575 19.1534C70.5868 20.7006 70.5399 21.0523 70.6102 31.4376C70.6806 41.6354 70.6337 41.3072 72.2278 42.8545C73.8454 44.4252 77.4088 45.1519 82.4959 44.9409C87.9348 44.7065 90.0447 43.8625 91.3106 41.3775L92.0139 39.9944V21.9197L91.3575 20.6068C90.3494 18.5438 88.685 17.6061 85.2154 17.1372C82.8476 16.809 78.5809 16.8559 76.5414 17.231ZM86.1296 20.3021C86.7626 20.56 87.4894 21.0523 87.7707 21.4039C88.2395 22.0603 88.263 22.2948 88.263 30.9453C88.263 39.5959 88.2395 39.8303 87.7707 40.4867C87.0205 41.4713 85.3795 41.9871 82.4022 42.1277C77.9714 42.3387 75.2989 41.6589 74.5018 40.0647C74.1267 39.3614 74.0798 38.4003 74.0798 30.9922C74.0798 21.9666 74.1267 21.5915 75.4161 20.7475C77.0806 19.6457 83.6681 19.3878 86.1296 20.3021Z" fill="var(--fill-0, white)"/>
<path d="M140.541 17.231C138.361 17.6296 137.212 18.1219 136.134 19.1768C134.587 20.6772 134.563 20.935 134.563 33.5709V44.7768H138.08V34.6962H152.38V44.7768H155.92L155.85 33.2193C155.779 22.5526 155.756 21.6149 155.334 20.6772C154.795 19.4347 153.365 18.1687 151.935 17.7233C149.379 16.8794 143.777 16.6215 140.541 17.231ZM149.614 20.1614C150.833 20.5131 151.864 21.4508 152.146 22.4589C152.263 22.9277 152.38 25.1783 152.38 27.4288V31.5314H138.056L138.127 26.8427C138.197 22.7871 138.244 22.0603 138.619 21.5211C139.135 20.7944 140.307 20.1849 141.807 19.927C143.19 19.6691 148.489 19.8332 149.614 20.1614Z" fill="var(--fill-0, white)"/>
<path d="M167.501 17.1138C164.196 17.6296 162.437 18.6142 161.476 20.4662C161.078 21.2398 160.96 22.0134 160.867 23.9827C160.726 27.2647 161.031 28.3665 162.437 29.7731C163.797 31.1329 164.782 31.4376 170.666 32.3519C173.174 32.7504 175.659 33.1724 176.152 33.3131C178.074 33.8288 178.871 35.4698 178.566 38.3299C178.402 39.8772 177.886 40.9087 177.042 41.3541C174.792 42.5028 168.181 42.5028 165.93 41.3541C164.805 40.768 164.5 40.0178 164.36 37.5329L164.219 35.2823H160.937L160.867 37.1343C160.656 43.0655 163.281 45.0112 171.486 45.0112C177.418 45.0112 180.137 44.0266 181.52 41.3775C181.895 40.6508 182.012 39.8772 182.106 37.8611C182.223 34.7431 181.966 33.5944 180.817 32.3285C179.41 30.7578 178.59 30.4999 172.096 29.3981C164.43 28.1321 164.266 28.0149 164.383 24.3343C164.453 22.0838 164.805 21.357 166.165 20.56C167.314 19.8801 170.877 19.5519 173.69 19.8801C177.394 20.2786 178.379 21.0757 178.59 23.8889L178.707 25.5534H182.223L182.106 23.6076C181.778 18.6611 179.574 17.1841 172.19 16.9966C170.385 16.9497 168.275 16.9966 167.501 17.1138Z" fill="var(--fill-0, white)"/>
<path d="M97.0542 28.1321C97.0542 35.0713 97.148 39.549 97.3121 40.2992C97.9919 43.464 100.782 45.0112 105.822 45.0112C108.799 45.0112 111.612 44.0032 112.691 42.5731L113.113 42.034L114.238 43.042C115.903 44.5424 117.192 44.894 120.849 44.894C125.444 44.894 127.601 43.9563 128.726 41.4713L129.289 40.2054V17.231L125.913 17.0904L125.842 28.2962C125.772 39.0098 125.749 39.5255 125.303 40.2992C124.506 41.6589 123.357 42.0808 120.497 42.0808C117.426 42.0808 116.137 41.5885 115.434 40.1819C115.012 39.3145 114.988 38.5878 114.918 28.179L114.848 17.0904L111.472 17.231L111.355 28.5307C111.237 39.4786 111.214 39.8303 110.745 40.4867C109.878 41.6823 108.705 42.0808 106.08 42.0808C102.563 42.0574 101.368 41.4713 100.829 39.5021C100.664 38.8926 100.571 34.8369 100.571 27.8274V17.1138H97.0542V28.1321Z" fill="var(--fill-0, white)"/>
<path d="M187.193 17.3951C187.123 17.5592 187.1 23.7717 187.123 31.1797L187.193 44.6596H190.616L190.71 36.9233L196.922 36.8061C203.862 36.642 204.518 36.5248 206.276 35.001C208.175 33.3834 208.292 32.938 208.292 27.0772V21.9197L207.589 20.6537C206.815 19.2237 205.549 18.286 203.604 17.653C201.986 17.1372 187.381 16.8794 187.193 17.3951ZM202.783 20.6772C203.557 21.0757 203.979 21.4977 204.377 22.2713C204.846 23.209 204.893 23.631 204.893 27.1006C204.893 30.5702 204.846 30.9453 204.354 31.883C203.369 33.735 202.853 33.8757 196.289 33.946L190.593 34.0164V20.1614H196.172C201.494 20.1614 201.799 20.1849 202.783 20.6772Z" fill="var(--fill-0, white)"/>
<path d="M206.182 45.2222C204.565 46.2068 203.955 47.3556 203.955 49.3482C203.955 50.872 204.237 51.716 205.081 52.5834C206.018 53.5915 206.839 53.9197 208.292 53.9197C209.746 53.9197 210.566 53.5915 211.504 52.5834C212.348 51.716 212.629 50.872 212.629 49.3482C212.629 48.6449 212.512 47.801 212.371 47.4259C212.067 46.6288 211.082 45.5504 210.238 45.105C209.3 44.6127 207.05 44.683 206.182 45.2222ZM210.426 46.4413C211.316 47.2618 211.692 48.1292 211.692 49.3482C211.692 50.6376 211.27 51.5285 210.285 52.3724C209.23 53.2398 207.355 53.2398 206.3 52.3724C205.315 51.5285 204.893 50.6376 204.893 49.3482C204.893 48.0589 205.315 47.168 206.347 46.3006C207.026 45.738 207.237 45.6677 208.456 45.7614C209.488 45.8318 209.957 45.9959 210.426 46.4413Z" fill="var(--fill-0, white)"/>
<path d="M206.534 49.3482C206.534 51.8801 206.557 52.0442 207.003 52.0442C207.401 52.0442 207.472 51.8801 207.472 50.9658C207.472 49.9578 207.519 49.8874 208.011 50.0281C208.292 50.0984 208.597 50.1688 208.691 50.1688C208.785 50.1688 208.949 50.5907 209.019 51.1065C209.16 51.9035 209.253 52.0442 209.746 52.0442C210.285 52.0442 210.308 51.9973 210.144 50.9189C210.074 50.3094 209.886 49.6999 209.769 49.5358C209.652 49.3717 209.652 49.2076 209.816 49.1138C209.933 49.0435 210.051 48.6215 210.051 48.1995C210.051 47.0742 209.464 46.6523 207.87 46.6523H206.534V49.3482ZM208.363 47.7307C209.347 48.012 208.808 48.9731 207.659 48.9966C207.542 48.9966 207.472 48.6684 207.472 48.2933C207.472 47.5431 207.519 47.5197 208.363 47.7307Z" fill="var(--fill-0, white)"/>
</g>
</g>
<defs>
<clipPath id="clip0_67_1228">
<rect width="212.63" height="64" fill="white"/>
</clipPath>
</defs>
</svg>
