<svg preserveAspectRatio="none" width="100%" height="100%" overflow="visible" style="display: block;" viewBox="0 0 41 40" fill="none" xmlns="http://www.w3.org/2000/svg">
<g id="Logo" clip-path="url(#clip0_67_1144)">
<g id="Vector">
<path d="M17.2561 0.219813C15.3221 0.571462 13.5638 1.15754 11.7323 2.05132C6.25247 4.73263 2.41365 9.5971 0.963096 15.7363C0.69936 16.8498 0.640752 17.5385 0.640752 19.8535C0.6261 22.2564 0.670056 22.8425 0.963096 24.1759C1.78361 27.8535 3.43929 30.9451 6.03269 33.6704C9.03636 36.8059 12.7726 38.8425 17.0364 39.6484C18.9851 40.0293 22.443 39.9854 24.3917 39.5751C29.769 38.4469 34.2671 35.4286 37.2415 30.9451C39.3953 27.7216 40.3624 24.674 40.5089 20.6594C40.6261 17.2015 40.0693 14.4616 38.6627 11.5019C35.7763 5.43593 30.4136 1.37732 23.7177 0.219813C22.1939 -0.058575 18.7506 -0.043923 17.2561 0.219813ZM23.3367 3.44326C29.6224 4.4689 34.8679 9.12824 36.6554 15.2528C38.9265 23.1356 35.2488 31.4433 27.8935 35.0183C24.2158 36.8059 20.1133 37.1868 16.084 36.1173C10.2671 34.5495 5.66639 29.7876 4.20119 23.8242C3.82024 22.2271 3.68837 19.4286 3.9228 17.6997C4.6554 12.2491 8.11328 7.4286 13.0803 4.93776C14.355 4.30773 16.6261 3.57512 17.8715 3.3993C19.3367 3.17952 21.9008 3.20882 23.3367 3.44326Z" fill="var(--fill-0, white)"/>
<path d="M27.6591 7.7949C27.6591 7.88282 27.8056 8.26377 27.9668 8.61542C28.2452 9.17219 28.2598 9.33337 28.1133 9.83153C27.9521 10.3883 27.9228 10.403 27.6151 10.1832C27.0583 9.78758 26.6334 9.90479 25.8715 10.7107C25.1682 11.4286 25.1389 11.4726 25.1975 12.2052L25.2415 12.9671H24.4942C23.8056 12.9817 23.7323 12.9524 23.41 12.4542C23.1169 12.0147 23.073 11.7803 23.1023 10.8718C23.1316 9.84619 22.9558 9.43593 22.7653 10.1539C22.5162 11.1649 22.5016 12.1172 22.736 12.5715C22.8679 12.8352 22.9118 13.0403 22.8386 13.0403C22.5016 13.0403 22.0913 12.4396 21.7983 11.5312C21.4906 10.5641 21.1975 10.2418 21.2268 10.8718C21.2268 11.0623 21.3441 11.6484 21.4759 12.1759C21.7836 13.348 21.6664 13.3627 20.6114 12.2638C19.8056 11.4286 19.5125 11.4286 20.084 12.2638C20.6847 13.1575 21.1243 13.5531 21.8569 13.8315C22.9411 14.2418 22.6481 14.3297 21.1389 14.0513C16.6847 13.1868 14.692 12.9817 10.5602 12.9817C7.08764 12.9671 6.54551 12.9964 6.34039 13.2015C6.12061 13.4213 6.14991 13.4799 6.72134 13.9634C7.39533 14.5495 8.74332 15.3846 10.1939 16.1026C11.366 16.6887 13.3294 17.1575 14.692 17.1722C15.6444 17.1868 15.8495 17.1282 16.4942 16.7326C17.4466 16.1466 17.9887 16.0147 20.0547 15.8242C22.4283 15.6191 22.4576 15.6191 22.6481 16.044C22.8239 16.4103 22.8093 16.4249 22.3257 16.337C21.9741 16.2638 21.6224 16.3224 21.1389 16.5422C19.5858 17.2308 16.9484 19.7803 15.4832 22.022C14.5455 23.4286 12.3038 27.7803 12.4356 27.9121C12.5821 28.0586 16.9338 25.7876 18.443 24.7766C19.5125 24.0733 20.4503 23.2674 21.5785 22.0953C23.3953 20.2345 24.04 19.1942 24.0254 18.2271C24.0254 17.6118 24.0254 17.6118 24.377 17.7583C24.5675 17.8462 24.7287 17.9927 24.7287 18.0806C24.7287 18.1685 24.6261 19.2674 24.4942 20.5129C24.2891 22.6374 24.2452 22.8425 23.7763 23.6191C23.1316 24.718 23.0437 25.4066 23.3367 27.1795C23.5272 28.3663 23.7177 28.9524 24.3477 30.2564C25.1682 31.9268 26.3697 33.7729 26.8239 34.0513C27.1902 34.2857 27.3221 33.9927 27.4539 32.674C27.7177 29.8755 27.2928 24.6447 26.4283 19.7803C26.2378 18.696 26.0913 17.7876 26.1206 17.7583C26.1353 17.7436 26.3404 18.0953 26.5748 18.5641C26.8679 19.1356 27.2635 19.6191 27.8056 20.0586C28.8019 20.8645 29.0364 20.5861 28.0693 19.707C26.9851 18.7253 27.0437 18.6081 28.4796 18.9451C30.2818 19.37 30.399 19.0183 28.6408 18.4909C28.04 18.3151 27.6884 18.1099 27.4832 17.8315C27.1463 17.3773 27.1609 17.3627 27.8495 17.6557C28.2891 17.8315 28.5675 17.8462 29.4906 17.7143C30.0913 17.6264 30.5895 17.4945 30.5895 17.4213C30.5895 17.348 30.0913 17.2894 29.4906 17.2894C28.5968 17.2894 28.2891 17.2308 27.8935 16.9671C27.4246 16.6594 27.3953 16.5861 27.3953 15.8828L27.41 15.1209L27.8935 15.1942C28.6554 15.3114 29.1096 15.1356 29.7983 14.403C30.5016 13.6704 30.6041 13.2015 30.1646 12.7619C29.8862 12.4835 29.8862 12.4689 30.3257 12.3224C30.9704 12.0879 31.2488 12.1172 31.9375 12.4689C32.3038 12.6594 32.5821 12.718 32.6701 12.6301C32.8312 12.4689 31.4393 11.7216 30.9997 11.7216C30.8532 11.7216 30.4869 11.8242 30.1646 11.9561L29.5785 12.1905L28.1572 10.7693L28.421 10.1832C28.758 9.40663 28.758 9.27476 28.3038 8.38099C27.9521 7.66304 27.6591 7.3993 27.6591 7.7949Z" fill="var(--fill-0, white)"/>
</g>
</g>
<defs>
<clipPath id="clip0_67_1144">
<rect width="41" height="40" fill="white"/>
</clipPath>
</defs>
</svg>
