<svg preserveAspectRatio="none" width="100%" height="100%" overflow="visible" style="display: block;" viewBox="0 0 21 21" fill="none" xmlns="http://www.w3.org/2000/svg">
<path id="Vector" d="M20.25 4.50094H13.5C12.9178 4.50094 12.3437 4.63648 11.8229 4.89684C11.3022 5.15719 10.8493 5.5352 10.5 6.00094C10.1507 5.5352 9.69776 5.15719 9.17705 4.89684C8.65634 4.63648 8.08217 4.50094 7.5 4.50094H0.75C0.551088 4.50094 0.360322 4.57996 0.21967 4.72061C0.0790176 4.86126 0 5.05203 0 5.25094V16.5009C0 16.6998 0.0790176 16.8906 0.21967 17.0313C0.360322 17.1719 0.551088 17.2509 0.75 17.2509H7.5C8.09674 17.2509 8.66903 17.488 9.09099 17.9099C9.51295 18.3319 9.75 18.9042 9.75 19.5009C9.75 19.6998 9.82902 19.8906 9.96967 20.0313C10.1103 20.1719 10.3011 20.2509 10.5 20.2509C10.6989 20.2509 10.8897 20.1719 11.0303 20.0313C11.171 19.8906 11.25 19.6998 11.25 19.5009C11.25 18.9042 11.4871 18.3319 11.909 17.9099C12.331 17.488 12.9033 17.2509 13.5 17.2509H20.25C20.4489 17.2509 20.6397 17.1719 20.7803 17.0313C20.921 16.8906 21 16.6998 21 16.5009V5.25094C21 5.05203 20.921 4.86126 20.7803 4.72061C20.6397 4.57996 20.4489 4.50094 20.25 4.50094ZM7.5 15.7509H1.5V6.00094H7.5C8.09674 6.00094 8.66903 6.23799 9.09099 6.65995C9.51295 7.0819 9.75 7.6542 9.75 8.25094V16.5009C9.1015 16.0129 8.3116 15.7496 7.5 15.7509ZM19.5 15.7509H13.5C12.6884 15.7496 11.8985 16.0129 11.25 16.5009V8.25094C11.25 7.6542 11.4871 7.0819 11.909 6.65995C12.331 6.23799 12.9033 6.00094 13.5 6.00094H19.5V15.7509ZM6.9 1.8C7.31916 1.24112 7.86269 0.787502 8.48754 0.475078C9.11239 0.162653 9.8014 0 10.5 0C11.1986 0 11.8876 0.162653 12.5125 0.475078C13.1373 0.787502 13.6808 1.24112 14.1 1.8C14.2196 1.95901 14.2711 2.15901 14.2433 2.35601C14.2154 2.55301 14.1104 2.73087 13.9514 2.85047C13.7924 2.97006 13.5924 3.0216 13.3954 2.99373C13.1984 2.96586 13.0205 2.86088 12.9009 2.70188C12.6215 2.32893 12.2591 2.0262 11.8423 1.81769C11.4256 1.60918 10.966 1.50062 10.5 1.50062C10.034 1.50062 9.57441 1.60918 9.15766 1.81769C8.74091 2.0262 8.37847 2.32893 8.09906 2.70188C8.03984 2.78061 7.9657 2.8469 7.88086 2.89698C7.79602 2.94706 7.70215 2.97993 7.6046 2.99373C7.50706 3.00753 7.40775 3.00198 7.31235 2.9774C7.21695 2.95282 7.12733 2.90969 7.04859 2.85047C6.96986 2.79125 6.90357 2.71711 6.85349 2.63227C6.80341 2.54743 6.77054 2.45355 6.75674 2.35601C6.74294 2.25846 6.74849 2.15916 6.77307 2.06376C6.79765 1.96836 6.84078 1.87873 6.9 1.8Z" fill="var(--fill-0, #FFB81B)"/>
</svg>
