<svg preserveAspectRatio="none" width="100%" height="100%" overflow="visible" style="display: block;" viewBox="0 0 24 24" fill="none" xmlns="http://www.w3.org/2000/svg">
<path id="Vector" d="M4.29329 9.70806L0.293287 5.70806C0.20031 5.61518 0.126551 5.50489 0.0762267 5.3835C0.0259024 5.2621 0 5.13197 0 5.00056C0 4.86914 0.0259024 4.73901 0.0762267 4.61762C0.126551 4.49622 0.20031 4.38593 0.293287 4.29306L4.29329 0.293056C4.48093 0.105415 4.73542 -1.97712e-09 5.00079 0C5.26615 1.97712e-09 5.52065 0.105415 5.70829 0.293056C5.89593 0.480697 6.00134 0.735192 6.00134 1.00056C6.00134 1.26592 5.89593 1.52042 5.70829 1.70806L2.41454 5.00056L5.70829 8.29306C5.89593 8.4807 6.00134 8.73519 6.00134 9.00056C6.00134 9.26592 5.89593 9.52041 5.70829 9.70806C5.52065 9.8957 5.26615 10.0011 5.00079 10.0011C4.73542 10.0011 4.48093 9.8957 4.29329 9.70806ZM9.29329 9.70806C9.38616 9.80103 9.49645 9.87479 9.61785 9.92512C9.73924 9.97544 9.86937 10.0013 10.0008 10.0013C10.1322 10.0013 10.2623 9.97544 10.3837 9.92512C10.5051 9.87479 10.6154 9.80103 10.7083 9.70806L14.7083 5.70806C14.8013 5.61518 14.875 5.50489 14.9253 5.3835C14.9757 5.2621 15.0016 5.13197 15.0016 5.00056C15.0016 4.86914 14.9757 4.73901 14.9253 4.61762C14.875 4.49622 14.8013 4.38593 14.7083 4.29306L10.7083 0.293056C10.5206 0.105415 10.2662 0 10.0008 0C9.73542 0 9.48093 0.105415 9.29329 0.293056C9.10565 0.480697 9.00023 0.735192 9.00023 1.00056C9.00023 1.26592 9.10565 1.52042 9.29329 1.70806L12.587 5.00056L9.29329 8.29306C9.20031 8.38593 9.12655 8.49622 9.07623 8.61762C9.0259 8.73901 9 8.86914 9 9.00056C9 9.13197 9.0259 9.2621 9.07623 9.3835C9.12655 9.50489 9.20031 9.61518 9.29329 9.70806ZM22.0008 2.00056H19.0008C18.7356 2.00056 18.4812 2.10591 18.2937 2.29345C18.1061 2.48099 18.0008 2.73534 18.0008 3.00056C18.0008 3.26577 18.1061 3.52013 18.2937 3.70766C18.4812 3.8952 18.7356 4.00056 19.0008 4.00056H22.0008V22.0006H4.00079V14.0006C4.00079 13.7353 3.89543 13.481 3.70789 13.2934C3.52036 13.1059 3.266 13.0006 3.00079 13.0006C2.73557 13.0006 2.48122 13.1059 2.29368 13.2934C2.10614 13.481 2.00079 13.7353 2.00079 14.0006V22.0006C2.00079 22.531 2.2115 23.0397 2.58657 23.4148C2.96165 23.7898 3.47035 24.0006 4.00079 24.0006H22.0008C22.5312 24.0006 23.0399 23.7898 23.415 23.4148C23.7901 23.0397 24.0008 22.531 24.0008 22.0006V4.00056C24.0008 3.47012 23.7901 2.96142 23.415 2.58634C23.0399 2.21127 22.5312 2.00056 22.0008 2.00056Z" fill="var(--fill-0, #003594)"/>
</svg>
