<svg preserveAspectRatio="none" width="100%" height="100%" overflow="visible" style="display: block;" viewBox="0 0 17 21" fill="none" xmlns="http://www.w3.org/2000/svg">
<path id="Vector" d="M13.7494 4.08375C12.0441 1.52719 9.98813 0 8.25 0C6.51187 0 4.45594 1.52719 2.75062 4.08375C1.00312 6.70688 0 9.86531 0 12.75C0 14.938 0.869194 17.0365 2.41637 18.5836C3.96354 20.1308 6.06196 21 8.25 21C10.438 21 12.5365 20.1308 14.0836 18.5836C15.6308 17.0365 16.5 14.938 16.5 12.75C16.5 9.86531 15.4969 6.70688 13.7494 4.08375ZM8.25 19.5C6.4604 19.498 4.74466 18.7862 3.47922 17.5208C2.21378 16.2553 1.50199 14.5396 1.5 12.75C1.5 10.1541 2.41125 7.29844 3.99938 4.91625C5.36156 2.8725 7.06969 1.5 8.25 1.5C9.14062 1.5 10.3313 2.28094 11.4469 3.54187L7.6875 7.75031C7.60147 7.84646 7.5417 7.96318 7.51397 8.08918C7.48623 8.21518 7.49147 8.3462 7.52918 8.46958C7.56688 8.59297 7.63577 8.70454 7.7292 8.79351C7.82262 8.88249 7.93742 8.94586 8.0625 8.9775L10.3688 9.55406L9.75938 12.6028C9.72045 12.7977 9.7605 13.0001 9.87072 13.1656C9.98093 13.331 10.1523 13.4459 10.3472 13.485C10.3975 13.4954 10.4487 13.5004 10.5 13.5C10.6731 13.4997 10.8408 13.4395 10.9746 13.3296C11.1084 13.2197 11.2001 13.067 11.2341 12.8972L11.9841 9.14719C12.0219 8.95825 11.9855 8.76201 11.8825 8.59916C11.7796 8.4363 11.6178 8.31933 11.4309 8.2725L9.63469 7.82344L12.3844 4.74375C12.4238 4.80094 12.4622 4.85813 12.5006 4.91625C14.0887 7.29844 15 10.1541 15 12.75C14.998 14.5396 14.2862 16.2553 13.0208 17.5208C11.7553 18.7862 10.0396 19.498 8.25 19.5Z" fill="var(--fill-0, #003594)"/>
</svg>
