<svg preserveAspectRatio="none" width="100%" height="100%" overflow="visible" style="display: block;" viewBox="0 0 21 19" fill="none" xmlns="http://www.w3.org/2000/svg">
<path id="Vector" d="M20.5059 0.344062C20.4379 0.238483 20.3445 0.151655 20.2343 0.091541C20.1241 0.0314271 20.0005 -4.869e-05 19.8749 5.65339e-08H12.3749C12.231 5.62846e-05 12.0901 0.0415443 11.969 0.11951C11.848 0.197476 11.752 0.308626 11.6924 0.439687L10.8693 2.25H0.749928C0.604651 2.25001 0.462505 2.29222 0.340761 2.37149C0.219018 2.45076 0.122917 2.56368 0.0641354 2.69654C0.0053541 2.82939 -0.0135774 2.97646 0.00964116 3.11987C0.0328597 3.26328 0.097229 3.39686 0.194928 3.50437L3.48649 7.125L0.194928 10.7456C0.097229 10.8531 0.0328597 10.9867 0.00964116 11.1301C-0.0135774 11.2735 0.0053541 11.4206 0.0641354 11.5535C0.122917 11.6863 0.219018 11.7992 0.340761 11.8785C0.462505 11.9578 0.604651 12 0.749928 12H7.60212C7.74608 11.9999 7.88698 11.9585 8.008 11.8805C8.12903 11.8025 8.22505 11.6914 8.28462 11.5603L9.10774 9.75H14.9606L11.6924 16.9397C11.6486 17.0297 11.6232 17.1277 11.6177 17.2277C11.6123 17.3277 11.627 17.4278 11.6609 17.5221C11.6948 17.6163 11.7473 17.7029 11.8152 17.7765C11.8831 17.8502 11.965 17.9095 12.0562 17.9509C12.1474 17.9924 12.246 18.0152 12.3461 18.0179C12.4463 18.0207 12.5459 18.0033 12.6393 17.9669C12.7326 17.9305 12.8177 17.8758 12.8895 17.8059C12.9613 17.7361 13.0184 17.6526 13.0574 17.5603L20.5574 1.06031C20.6094 0.94614 20.6319 0.820747 20.6229 0.695615C20.6139 0.570483 20.5737 0.44961 20.5059 0.344062ZM7.1193 10.5H2.44493L5.05493 7.62937C5.18036 7.49134 5.24986 7.31151 5.24986 7.125C5.24986 6.93849 5.18036 6.75866 5.05493 6.62063L2.44493 3.75H10.1877L7.1193 10.5ZM15.6421 8.25H9.7893L12.8577 1.5H18.7106L15.6421 8.25Z" fill="var(--fill-0, #003594)"/>
</svg>
