<svg preserveAspectRatio="none" width="100%" height="100%" overflow="visible" style="display: block;" viewBox="0 0 32 22" fill="none" xmlns="http://www.w3.org/2000/svg">
<path id="Vector" d="M31.7865 7.4878L28.5965 1.1053C28.479 0.870379 28.3163 0.660912 28.1178 0.488856C27.9194 0.316801 27.6889 0.185528 27.4397 0.102534C27.1905 0.0195395 26.9274 -0.0135503 26.6654 0.00515412C26.4034 0.0238585 26.1476 0.093991 25.9127 0.211546L22.804 1.7653L16.2552 0.0327959C16.0872 -0.010932 15.9108 -0.010932 15.7427 0.0327959L9.19397 1.7653L6.08522 0.211546C5.85032 0.093991 5.59457 0.0238585 5.33256 0.00515412C5.07056 -0.0135503 4.80744 0.0195395 4.55822 0.102534C4.30901 0.185528 4.07858 0.316801 3.8801 0.488856C3.68163 0.660912 3.51899 0.870379 3.40147 1.1053L0.211469 7.48655C0.0939138 7.72144 0.0237816 7.9772 0.00507721 8.2392C-0.0136272 8.50121 0.0194626 8.76433 0.102457 9.01354C0.185451 9.26276 0.316724 9.49318 0.488779 9.69166C0.660835 9.89014 0.870302 10.0528 1.10522 10.1703L4.48022 11.859L11.4165 16.8128C11.5187 16.8855 11.6336 16.9385 11.7552 16.969L19.7552 18.969C19.9228 19.0111 20.0983 19.009 20.2648 18.963C20.4313 18.917 20.583 18.8286 20.7052 18.7065L27.589 11.8215L30.8915 10.1703C31.3656 9.93296 31.726 9.51707 31.8936 9.01406C32.0612 8.51104 32.0222 7.96207 31.7852 7.4878H31.7865ZM24.9252 11.659L20.624 8.21405C20.4313 8.05973 20.1883 7.98214 19.9418 7.99622C19.6954 8.0103 19.4628 8.11504 19.289 8.2903C17.0627 10.5328 14.5815 10.249 12.999 9.24905L18.404 3.99905H22.3802L25.7815 10.8003L24.9252 11.659ZM5.19022 1.99905L7.74897 3.27655L4.55272 9.65779L1.99897 8.38155L5.19022 1.99905ZM19.6902 16.8903L12.4265 15.0753L6.27647 10.6828L9.77647 3.6828L15.999 2.03405L17.224 2.3578L11.599 7.8178L11.589 7.82905C11.3772 8.04079 11.2157 8.29737 11.1164 8.57987C11.0171 8.86237 10.9825 9.16356 11.0151 9.46122C11.0477 9.75889 11.1468 10.0454 11.305 10.2997C11.4631 10.554 11.6764 10.7695 11.929 10.9303C14.499 12.5715 17.6002 12.3053 20.0427 10.3053L23.499 13.0815L19.6902 16.8903ZM27.4402 9.65655L24.2502 3.28155L26.8077 1.99905L29.999 8.38155L27.4402 9.65655ZM16.4715 21.2403C16.4174 21.4564 16.2928 21.6483 16.1173 21.7856C15.9418 21.9228 15.7255 21.9975 15.5027 21.9978C15.4206 21.9977 15.3387 21.9876 15.259 21.9678L10.0502 20.6653C9.92839 20.6352 9.81342 20.5822 9.71147 20.509L6.41772 18.1565C6.2152 17.9975 6.08181 17.7665 6.04535 17.5116C6.00888 17.2567 6.07214 16.9976 6.22196 16.7882C6.37177 16.5788 6.5966 16.4352 6.84961 16.3874C7.10262 16.3396 7.36432 16.3912 7.58022 16.5315L10.719 18.774L15.749 20.029C16.0062 20.0934 16.2274 20.2573 16.3638 20.4847C16.5002 20.712 16.5407 20.9843 16.4765 21.2415L16.4715 21.2403Z" fill="var(--fill-0, #FFB81B)"/>
</svg>
