<svg preserveAspectRatio="none" width="100%" height="100%" overflow="visible" style="display: block;" viewBox="0 0 22 26" fill="none" xmlns="http://www.w3.org/2000/svg">
<path id="Vector" d="M10 19H9V18.5C9 17.5717 8.63125 16.6815 7.97487 16.0251C7.3185 15.3687 6.42826 15 5.5 15C4.57174 15 3.6815 15.3687 3.02513 16.0251C2.36875 16.6815 2 17.5717 2 18.5V19H1C0.734784 19 0.48043 19.1054 0.292893 19.2929C0.105357 19.4804 0 19.7348 0 20V25C0 25.2652 0.105357 25.5196 0.292893 25.7071C0.48043 25.8946 0.734784 26 1 26H10C10.2652 26 10.5196 25.8946 10.7071 25.7071C10.8946 25.5196 11 25.2652 11 25V20C11 19.7348 10.8946 19.4804 10.7071 19.2929C10.5196 19.1054 10.2652 19 10 19ZM4 18.5C4 18.1022 4.15804 17.7206 4.43934 17.4393C4.72064 17.158 5.10218 17 5.5 17C5.89782 17 6.27936 17.158 6.56066 17.4393C6.84196 17.7206 7 18.1022 7 18.5V19H4V18.5ZM9 24H2V21H9V24ZM21.7075 7.2925L14.7075 0.2925C14.6146 0.199666 14.5042 0.126052 14.3829 0.0758639C14.2615 0.0256758 14.1314 -0.000102986 14 3.09198e-07H2C1.46957 3.09198e-07 0.960859 0.210714 0.585786 0.585787C0.210714 0.960859 0 1.46957 0 2V13C0 13.2652 0.105357 13.5196 0.292893 13.7071C0.48043 13.8946 0.734784 14 1 14C1.26522 14 1.51957 13.8946 1.70711 13.7071C1.89464 13.5196 2 13.2652 2 13V2H13V8C13 8.26522 13.1054 8.51957 13.2929 8.70711C13.4804 8.89464 13.7348 9 14 9H20V24H15C14.7348 24 14.4804 24.1054 14.2929 24.2929C14.1054 24.4804 14 24.7348 14 25C14 25.2652 14.1054 25.5196 14.2929 25.7071C14.4804 25.8946 14.7348 26 15 26H20C20.5304 26 21.0391 25.7893 21.4142 25.4142C21.7893 25.0391 22 24.5304 22 24V8C22.0001 7.86864 21.9743 7.73855 21.9241 7.61715C21.8739 7.49576 21.8003 7.38544 21.7075 7.2925ZM15 3.41375L18.5863 7H15V3.41375Z" fill="var(--fill-0, #003594)"/>
</svg>
