<svg preserveAspectRatio="none" width="100%" height="100%" overflow="visible" style="display: block;" viewBox="0 0 17 16" fill="none" xmlns="http://www.w3.org/2000/svg">
<path id="Vector" d="M16.875 7.49905C16.874 6.5048 16.4785 5.55158 15.7755 4.84854C15.0725 4.1455 14.1192 3.75008 13.125 3.74905H10.0156C9.78828 3.73577 5.82656 3.45686 2.05391 0.292799C1.87172 0.139794 1.64966 0.0419561 1.4138 0.0107798C1.17794 -0.0203965 0.938088 0.0163833 0.722408 0.116799C0.506728 0.217214 0.324183 0.377094 0.196218 0.577658C0.0682525 0.778222 0.000181042 1.01114 0 1.24905V13.749C3.24134e-05 13.987 0.0679961 14.22 0.195903 14.4207C0.32381 14.6214 0.506345 14.7814 0.722054 14.8819C0.937763 14.9824 1.17768 15.0193 1.41361 14.9881C1.64954 14.957 1.87167 14.8591 2.05391 14.7061C5.00469 12.2311 8.06953 11.5217 9.375 11.3233V13.8014C9.37474 14.0074 9.42538 14.2102 9.52242 14.3919C9.61947 14.5736 9.75991 14.7285 9.93125 14.8428L10.7906 15.4155C10.9567 15.5263 11.147 15.5958 11.3454 15.618C11.5439 15.6402 11.7448 15.6146 11.9313 15.5432C12.1178 15.4718 12.2845 15.3568 12.4175 15.2078C12.5504 15.0587 12.6457 14.88 12.6953 14.6865L13.6148 11.2209C14.517 11.1009 15.3448 10.6574 15.9445 9.97277C16.5441 9.28818 16.8748 8.40913 16.875 7.49905ZM1.25 13.7436V1.24905C4.59453 4.05452 8.01797 4.76467 9.375 4.93967V10.0553C8.01953 10.2334 4.59688 10.942 1.25 13.7436ZM11.4844 14.3686V14.3772L10.625 13.8045V11.249H12.3125L11.4844 14.3686ZM13.125 9.99905H10.625V4.99905H13.125C13.788 4.99905 14.4239 5.26244 14.8928 5.73128C15.3616 6.20012 15.625 6.83601 15.625 7.49905C15.625 8.16209 15.3616 8.79797 14.8928 9.26682C14.4239 9.73566 13.788 9.99905 13.125 9.99905Z" fill="var(--fill-0, white)"/>
</svg>
