<svg preserveAspectRatio="none" width="100%" height="100%" overflow="visible" style="display: block;" viewBox="0 0 480 481" fill="none" xmlns="http://www.w3.org/2000/svg">
<g id="Logo" opacity="0.08" clip-path="url(#clip0_3_12233)">
<g id="Vector">
<path d="M199.985 2.44699C176.71 6.67886 155.551 13.732 133.51 24.488C67.5631 56.7559 21.3652 115.297 3.90878 189.178C0.734879 202.579 0.0295683 210.866 0.0295683 238.726C-0.146759 267.644 0.382224 274.697 3.90878 290.743C13.7831 335.001 33.7082 372.206 64.9182 405.003C101.065 442.737 146.029 467.247 197.34 476.945C220.792 481.529 262.405 481 285.857 476.063C350.569 462.486 404.702 426.163 440.496 372.206C466.416 333.414 478.054 296.738 479.817 248.424C481.228 206.811 474.528 173.838 457.6 138.219C422.864 65.2196 358.328 16.3769 277.746 2.44699C259.408 -0.903233 217.971 -0.726905 199.985 2.44699ZM273.161 41.2391C348.806 53.582 411.931 109.654 433.443 183.359C460.774 278.224 416.516 378.201 327.999 421.225C283.741 442.737 234.369 447.322 185.879 434.45C115.877 415.583 60.51 358.276 42.8772 286.511C38.2927 267.291 36.7057 233.613 39.527 212.806C48.3434 147.212 89.9567 89.2002 149.732 59.2245C165.072 51.6424 192.403 42.826 207.391 40.7101C225.024 38.0652 255.881 38.4179 273.161 41.2391Z" fill="url(#paint0_linear_3_12233)"/>
<path d="M325.178 93.6084C325.178 94.6664 326.941 99.2509 328.881 103.483C332.231 110.183 332.407 112.123 330.644 118.118C328.704 124.818 328.352 124.995 324.649 122.35C317.948 117.589 312.835 119 303.666 128.698C295.202 137.338 294.85 137.867 295.555 146.683L296.084 155.852H287.091C278.804 156.028 277.922 155.676 274.043 149.681C270.516 144.391 269.987 141.57 270.34 130.637C270.693 118.294 268.577 113.357 266.284 121.997C263.287 134.164 263.111 145.625 265.932 151.091C267.519 154.265 268.048 156.734 267.166 156.734C263.111 156.734 258.173 149.504 254.647 138.572C250.944 126.934 247.417 123.055 247.77 130.637C247.77 132.93 249.181 139.983 250.768 146.33C254.471 160.437 253.06 160.613 240.364 147.388C230.666 137.338 227.14 137.338 234.016 147.388C241.246 158.144 246.536 162.905 255.352 166.255C268.4 171.193 264.874 172.251 246.712 168.9C193.108 158.497 169.128 156.028 119.403 156.028C77.6138 155.852 71.0896 156.205 68.6211 158.673C65.9761 161.318 66.3288 162.024 73.2056 167.842C81.3167 174.896 97.5388 184.946 114.995 193.586C129.101 200.639 152.729 206.282 169.128 206.458C180.589 206.634 183.058 205.929 190.816 201.168C202.277 194.115 208.802 192.528 233.664 190.236C262.229 187.767 262.582 187.767 264.874 192.881C266.99 197.289 266.813 197.465 260.995 196.407C256.763 195.526 252.531 196.231 246.712 198.876C228.021 207.163 196.282 237.845 178.65 264.823C167.365 281.75 140.386 334.119 141.973 335.706C143.737 337.47 196.106 310.139 214.268 297.972C227.14 289.509 238.425 279.811 252.002 265.704C273.867 243.311 281.625 230.791 281.449 219.154C281.449 211.748 281.449 211.748 285.681 213.511C287.973 214.569 289.912 216.333 289.912 217.391C289.912 218.448 288.678 231.673 287.091 246.661C284.623 272.228 284.094 274.697 278.451 284.042C270.693 297.267 269.635 305.554 273.161 326.89C275.453 341.173 277.746 348.226 285.328 363.919C295.202 384.02 309.661 406.237 315.127 409.588C319.535 412.409 321.122 408.882 322.709 393.013C325.883 359.334 320.77 296.385 310.366 237.845C308.074 224.796 306.311 213.864 306.664 213.511C306.84 213.335 309.308 217.567 312.13 223.209C315.656 230.086 320.417 235.905 326.941 241.195C338.932 250.893 341.753 247.543 330.115 236.963C317.067 225.149 317.772 223.738 335.052 227.794C356.741 232.907 358.151 228.675 336.992 222.328C329.762 220.212 325.531 217.743 323.062 214.393C319.006 208.927 319.183 208.75 327.47 212.277C332.76 214.393 336.11 214.569 347.219 212.982C354.448 211.924 360.443 210.337 360.443 209.456C360.443 208.574 354.448 207.869 347.219 207.869C336.463 207.869 332.76 207.163 327.999 203.99C322.357 200.287 322.004 199.405 322.004 190.941L322.18 181.772L327.999 182.654C337.168 184.065 342.634 181.949 350.922 173.132C359.386 164.316 360.62 158.673 355.33 153.384C351.98 150.033 351.98 149.857 357.27 148.094C365.028 145.272 368.378 145.625 376.666 149.857C381.074 152.149 384.424 152.855 385.482 151.797C387.422 149.857 370.671 140.864 365.381 140.864C363.617 140.864 359.209 142.099 355.33 143.686L348.277 146.507L331.173 129.403L334.347 122.35C338.403 113.004 338.403 111.418 332.936 100.662C328.704 92.0215 325.178 88.8476 325.178 93.6084Z" fill="url(#paint1_linear_3_12233)"/>
</g>
</g>
<defs>
<linearGradient id="paint0_linear_3_12233" x1="240" y1="480.094" x2="240" y2="178.26" gradientUnits="userSpaceOnUse">
<stop stop-color="white"/>
<stop offset="1" stop-color="white"/>
</linearGradient>
<linearGradient id="paint1_linear_3_12233" x1="240" y1="480.094" x2="240" y2="178.26" gradientUnits="userSpaceOnUse">
<stop stop-color="white"/>
<stop offset="1" stop-color="white"/>
</linearGradient>
<clipPath id="clip0_3_12233">
<rect width="480" height="480.094" fill="white"/>
</clipPath>
</defs>
</svg>
