<svg preserveAspectRatio="none" width="100%" height="100%" overflow="visible" style="display: block;" viewBox="0 0 42 55" fill="none" xmlns="http://www.w3.org/2000/svg">
<path id="Pin" d="M21 0.5C32.3218 0.5 41.5 9.67816 41.5 21C41.5 22.3826 41.3632 23.733 41.1025 25.0381L41.0996 25.0537L41.0977 25.0703C40.1915 31.898 35.1593 39.2673 30.2764 44.9805C27.8451 47.8251 25.4702 50.237 23.7031 51.9375C22.82 52.7874 22.0894 53.4593 21.5801 53.918C21.3925 54.0869 21.2334 54.2256 21.1094 54.335C21.0117 54.2488 20.8924 54.1438 20.7549 54.0205C20.3171 53.6281 19.6864 53.0524 18.917 52.3203C17.3772 50.8552 15.2831 48.766 13.0684 46.2715C8.62648 41.2685 3.7468 34.6885 1.82324 28.2666L1.81836 28.249L1.8125 28.2334L1.6582 27.8096C0.908311 25.6795 0.5 23.388 0.5 21C0.5 9.67816 9.67816 0.5 21 0.5Z" fill="var(--fill-0, #4E4E4E)" stroke="url(#paint0_linear_64_15036)"/>
<defs>
<linearGradient id="paint0_linear_64_15036" x1="21" y1="0" x2="21" y2="55" gradientUnits="userSpaceOnUse">
<stop stop-color="white"/>
<stop offset="1" stop-color="white" stop-opacity="0"/>
</linearGradient>
</defs>
</svg>
