<svg preserveAspectRatio="none" width="100%" height="100%" overflow="visible" style="display: block;" viewBox="0 0 42 35" fill="none" xmlns="http://www.w3.org/2000/svg">
<path id="Vector" d="M42 18.0004C42 18.3982 41.842 18.7798 41.5607 19.0611C41.2794 19.3424 40.8978 19.5004 40.5 19.5004H35.4263L28.3425 33.6716C28.2178 33.9209 28.0261 34.1304 27.789 34.2768C27.5519 34.4232 27.2787 34.5006 27 34.5004H26.925C26.634 34.486 26.3536 34.3872 26.1178 34.2161C25.8821 34.0449 25.7013 33.8088 25.5975 33.5366L14.8781 5.39289L8.865 18.621C8.74587 18.8831 8.55382 19.1054 8.31178 19.2614C8.06973 19.4173 7.78792 19.5003 7.5 19.5004H1.5C1.10218 19.5004 0.720644 19.3424 0.43934 19.0611C0.158035 18.7798 0 18.3982 0 18.0004C0 17.6026 0.158035 17.221 0.43934 16.9397C0.720644 16.6584 1.10218 16.5004 1.5 16.5004H6.53437L13.635 0.879768C13.7574 0.61021 13.9569 0.382904 14.2082 0.226479C14.4596 0.0700544 14.7516 -0.0084939 15.0475 0.000728166C15.3434 0.00995024 15.63 0.10653 15.8711 0.278303C16.1122 0.450076 16.2971 0.689361 16.4025 0.966019L27.1856 29.2785L33.1575 17.3329C33.2817 17.083 33.4731 16.8727 33.7103 16.7256C33.9474 16.5785 34.2209 16.5005 34.5 16.5004H40.5C40.8978 16.5004 41.2794 16.6584 41.5607 16.9397C41.842 17.221 42 17.6026 42 18.0004Z" fill="var(--fill-0, #00A7E1)"/>
</svg>
