<svg preserveAspectRatio="none" width="100%" height="100%" overflow="visible" style="display: block;" viewBox="0 0 71 64" fill="none" xmlns="http://www.w3.org/2000/svg">
<path id="Vector 5" d="M66.8536 0.646447C66.6583 0.451184 66.3417 0.451184 66.1464 0.646447L62.9645 3.82843C62.7692 4.02369 62.7692 4.34027 62.9645 4.53553C63.1597 4.7308 63.4763 4.7308 63.6716 4.53553L66.5 1.70711L69.3284 4.53553C69.5237 4.7308 69.8403 4.7308 70.0355 4.53553C70.2308 4.34027 70.2308 4.02369 70.0355 3.82843L66.8536 0.646447ZM21 63.5V64H21.5V63.5H21ZM66.5 24V24.5H67V24H66.5ZM21 24V23.5H20.5V24H21ZM0 63.5V64H21V63.5V63H0V63.5ZM66.5 24H67V1H66.5H66V24H66.5ZM21 63.5H21.5V24H21H20.5V63.5H21ZM21 24V24.5H66.5V24V23.5H21V24Z" fill="var(--stroke-0, white)"/>
</svg>
