<svg preserveAspectRatio="none" width="100%" height="100%" overflow="visible" style="display: block;" viewBox="0 0 24 112" fill="none" xmlns="http://www.w3.org/2000/svg">
<path id="Vector 11" d="M23.8536 4.35355C24.0488 4.15829 24.0488 3.84171 23.8536 3.64645L20.6716 0.464466C20.4763 0.269204 20.1597 0.269204 19.9645 0.464466C19.7692 0.659728 19.7692 0.976311 19.9645 1.17157L22.7929 4L19.9645 6.82843C19.7692 7.02369 19.7692 7.34027 19.9645 7.53553C20.1597 7.7308 20.4763 7.7308 20.6716 7.53553L23.8536 4.35355ZM1 4V3.5H0.5V4H1ZM23.5 4V3.5H1V4V4.5H23.5V4ZM1 4H0.5V111.5H1H1.5V4H1Z" fill="var(--stroke-0, white)"/>
</svg>
