<svg preserveAspectRatio="none" width="100%" height="100%" overflow="visible" style="display: block;" viewBox="0 0 248 35" fill="none" xmlns="http://www.w3.org/2000/svg">
<path id="Vector 9" d="M0.646447 30.6464C0.451184 30.8417 0.451184 31.1583 0.646447 31.3536L3.82843 34.5355C4.02369 34.7308 4.34027 34.7308 4.53553 34.5355C4.7308 34.3403 4.7308 34.0237 4.53553 33.8284L1.70711 31L4.53553 28.1716C4.7308 27.9763 4.7308 27.6597 4.53553 27.4645C4.34027 27.2692 4.02369 27.2692 3.82843 27.4645L0.646447 30.6464ZM247 31V31.5H247.5V31H247ZM247 0H246.5V31H247H247.5V0H247ZM247 31V30.5H1V31V31.5H247V31Z" fill="var(--stroke-0, white)"/>
</svg>
