<svg preserveAspectRatio="none" width="100%" height="100%" overflow="visible" style="display: block;" viewBox="0 0 15 195" fill="none" xmlns="http://www.w3.org/2000/svg">
<path id="Vector 10" d="M14.3536 4.35355C14.5488 4.15829 14.5488 3.84171 14.3536 3.64645L11.1716 0.464466C10.9763 0.269204 10.6597 0.269204 10.4645 0.464466C10.2692 0.659728 10.2692 0.976311 10.4645 1.17157L13.2929 4L10.4645 6.82843C10.2692 7.02369 10.2692 7.34027 10.4645 7.53553C10.6597 7.7308 10.9763 7.7308 11.1716 7.53553L14.3536 4.35355ZM1 194H0.5V194.5H1V194ZM1 4V3.5H0.5V4H1ZM1 194V194.5H14V194V193.5H1V194ZM14 4V3.5H1V4V4.5H14V4ZM1 4H0.5V194H1H1.5V4H1Z" fill="var(--stroke-0, white)"/>
</svg>
