<svg preserveAspectRatio="none" width="100%" height="100%" overflow="visible" style="display: block;" viewBox="0 0 66 56" fill="none" xmlns="http://www.w3.org/2000/svg">
<path id="Vector 7" d="M61.8536 0.646447C61.6583 0.451184 61.3417 0.451184 61.1464 0.646447L57.9645 3.82843C57.7692 4.02369 57.7692 4.34027 57.9645 4.53553C58.1597 4.7308 58.4763 4.7308 58.6716 4.53553L61.5 1.70711L64.3284 4.53553C64.5237 4.7308 64.8403 4.7308 65.0355 4.53553C65.2308 4.34027 65.2308 4.02369 65.0355 3.82843L61.8536 0.646447ZM61.5 55V55.5H62V55H61.5ZM0 55V55.5H61.5V55V54.5H0V55ZM61.5 55H62V1H61.5H61V55H61.5Z" fill="var(--stroke-0, white)"/>
</svg>
