<svg preserveAspectRatio="none" width="100%" height="100%" overflow="visible" style="display: block;" viewBox="0 0 112 58" fill="none" xmlns="http://www.w3.org/2000/svg">
<path id="Vector 6" d="M107.854 0.646447C107.658 0.451184 107.342 0.451184 107.146 0.646447L103.964 3.82843C103.769 4.02369 103.769 4.34027 103.964 4.53553C104.16 4.7308 104.476 4.7308 104.672 4.53553L107.5 1.70711L110.328 4.53553C110.524 4.7308 110.84 4.7308 111.036 4.53553C111.231 4.34027 111.231 4.02369 111.036 3.82843L107.854 0.646447ZM56.5 57V57.5H57V57H56.5ZM56.5 20V19.5H56V20H56.5ZM107.5 20V20.5H108V20H107.5ZM0 57V57.5H56.5V57V56.5H0V57ZM56.5 57H57V20H56.5H56V57H56.5ZM56.5 20V20.5H107.5V20V19.5H56.5V20ZM107.5 20H108V1H107.5H107V20H107.5Z" fill="var(--stroke-0, white)"/>
</svg>
