<svg preserveAspectRatio="none" width="100%" height="100%" overflow="visible" style="display: block;" viewBox="0 0 37 63" fill="none" xmlns="http://www.w3.org/2000/svg">
<path id="Vector 4" d="M32.8536 0.646447C32.6583 0.451184 32.3417 0.451184 32.1464 0.646447L28.9645 3.82843C28.7692 4.02369 28.7692 4.34027 28.9645 4.53553C29.1597 4.7308 29.4763 4.7308 29.6716 4.53553L32.5 1.70711L35.3284 4.53553C35.5237 4.7308 35.8403 4.7308 36.0355 4.53553C36.2308 4.34027 36.2308 4.02369 36.0355 3.82843L32.8536 0.646447ZM32.5 62.5V63H33V62.5H32.5ZM0 62.5V63H32.5V62.5V62H0V62.5ZM32.5 62.5H33V1H32.5H32V62.5H32.5Z" fill="var(--stroke-0, white)"/>
</svg>
