<svg preserveAspectRatio="none" width="100%" height="100%" overflow="visible" style="display: block;" viewBox="0 0 56 51" fill="none" xmlns="http://www.w3.org/2000/svg">
<path id="Vector 8" d="M55.3536 4.35355C55.5488 4.15829 55.5488 3.84171 55.3536 3.64645L52.1716 0.464466C51.9763 0.269204 51.6597 0.269204 51.4645 0.464466C51.2692 0.659728 51.2692 0.976311 51.4645 1.17157L54.2929 4L51.4645 6.82843C51.2692 7.02369 51.2692 7.34027 51.4645 7.53553C51.6597 7.7308 51.9763 7.7308 52.1716 7.53553L55.3536 4.35355ZM1 4V3.5H0.5V4H1ZM1 51H1.5V4H1H0.5V51H1ZM1 4V4.5H55V4V3.5H1V4Z" fill="var(--stroke-0, white)"/>
</svg>
