<svg preserveAspectRatio="none" width="100%" height="100%" overflow="visible" style="display: block;" viewBox="0 0 97 27" fill="none" xmlns="http://www.w3.org/2000/svg">
<path id="Vector 6" d="M0.646447 22.6464C0.451184 22.8417 0.451184 23.1583 0.646447 23.3536L3.82843 26.5355C4.02369 26.7308 4.34027 26.7308 4.53553 26.5355C4.7308 26.3403 4.7308 26.0237 4.53553 25.8284L1.70711 23L4.53553 20.1716C4.7308 19.9763 4.7308 19.6597 4.53553 19.4645C4.34027 19.2692 4.02369 19.2692 3.82843 19.4645L0.646447 22.6464ZM96.5 23V23.5H97V23H96.5ZM96.5 0H96V23H96.5H97V0H96.5ZM96.5 23V22.5H1V23V23.5H96.5V23Z" fill="var(--stroke-0, white)"/>
</svg>
