<svg preserveAspectRatio="none" width="100%" height="100%" overflow="visible" style="display: block;" viewBox="0 0 95 183" fill="none" xmlns="http://www.w3.org/2000/svg">
<path id="Vector 2" d="M94.3536 4.35355C94.5488 4.15829 94.5488 3.84171 94.3536 3.64645L91.1716 0.464466C90.9763 0.269204 90.6597 0.269204 90.4645 0.464466C90.2692 0.659728 90.2692 0.976311 90.4645 1.17157L93.2929 4L90.4645 6.82843C90.2692 7.02369 90.2692 7.34027 90.4645 7.53553C90.6597 7.7308 90.9763 7.7308 91.1716 7.53553L94.3536 4.35355ZM1 4V3.5H0.5V4H1ZM1 182.5H1.5V4H1H0.5V182.5H1ZM1 4V4.5H94V4V3.5H1V4Z" fill="var(--stroke-0, white)"/>
</svg>
