<svg preserveAspectRatio="none" width="100%" height="100%" overflow="visible" style="display: block;" viewBox="0 0 46 34" fill="none" xmlns="http://www.w3.org/2000/svg">
<g id="contents">
<path id="background" fill-rule="evenodd" clip-rule="evenodd" d="M-4.06901e-05 0V34H45.3333V0H-4.06901e-05Z" fill="var(--fill-0, #F7FCFF)"/>
<mask id="mask0_64_15050" style="mask-type:luminance" maskUnits="userSpaceOnUse" x="0" y="0" width="46" height="34">
<path id="background_2" fill-rule="evenodd" clip-rule="evenodd" d="M-4.06901e-05 0V34H45.3333V0H-4.06901e-05Z" fill="var(--fill-0, white)"/>
</mask>
<g mask="url(#mask0_64_15050)">
<path id="top" fill-rule="evenodd" clip-rule="evenodd" d="M-4.06901e-05 0V11.3333H45.3333V0H-4.06901e-05Z" fill="var(--fill-0, #BF2714)"/>
<path id="bottom" fill-rule="evenodd" clip-rule="evenodd" d="M-4.06901e-05 22.6667V34H45.3333V22.6667H-4.06901e-05Z" fill="var(--fill-0, #272727)"/>
<g id="mark">
<g id="wing">
<path id="Path 23" d="M17.368 14.4787L18.7832 14.5436L18.428 22.2924L17.0128 22.2276L17.368 14.4787Z" fill="var(--fill-0, #C09302)"/>
<path id="Path 23_2" d="M18.847 14.9596L20.2614 15.0396L19.9061 21.323L18.4917 21.243L18.847 14.9596Z" fill="var(--fill-0, #C09302)"/>
<path id="Path 23_3" d="M20.3259 15.4302L21.7378 15.546L21.3826 19.8754L19.9707 19.7595L20.3259 15.4302Z" fill="var(--fill-0, #C09302)"/>
</g>
<g id="wing_2">
<path id="Path 23_4" d="M27.9642 14.4787L26.549 14.5436L26.9043 22.2924L28.3195 22.2276L27.9642 14.4787Z" fill="var(--fill-0, #C09302)"/>
<path id="Path 23_5" d="M26.4853 14.9596L25.0709 15.0396L25.4261 21.323L26.8405 21.243L26.4853 14.9596Z" fill="var(--fill-0, #C09302)"/>
<path id="Path 23_6" d="M25.0064 15.4302L23.5945 15.546L23.9497 19.8754L25.3616 19.7595L25.0064 15.4302Z" fill="var(--fill-0, #C09302)"/>
</g>
<g id="feathers">
<path id="Path 30" d="M22.629 21.7128L21.2481 21.3964L21.8326 18.8454L23.2135 19.1618L22.629 21.7128Z" fill="var(--fill-0, #C09302)"/>
<path id="Path 30_2" d="M23.6855 21.7128L25.0664 21.3964L24.4819 18.8454L23.101 19.1618L23.6855 21.7128Z" fill="var(--fill-0, #C09302)"/>
<path id="Path 31" d="M23.3357 21.6894H21.919V19.1849H23.3357V21.6894Z" fill="var(--fill-0, #C09302)"/>
</g>
<g id="center">
<path id="Path 23_7" d="M20.7323 15.4605L22.1485 15.4952L22.0658 18.8681L20.6495 18.8334L20.7323 15.4605Z" fill="var(--fill-0, #C09302)"/>
<path id="Path 23_8" d="M23.1962 15.4605L24.6125 15.4952L24.5297 18.8681L23.1135 18.8334L23.1962 15.4605Z" fill="var(--fill-0, #C09302)"/>
</g>
<g id="bottom_2">
<path id="Path 28" d="M18.8948 22.5573L19.2627 21.1893C20.7659 21.5935 21.9201 21.7934 22.7071 21.7934C23.4941 21.7934 24.6483 21.5935 26.1514 21.1893L26.5194 22.5573C24.9066 22.9911 23.6419 23.2101 22.7071 23.2101C21.7722 23.2101 20.5075 22.9911 18.8948 22.5573Z" fill="var(--fill-0, #C09302)"/>
</g>
<path id="Path 32" d="M17.4001 14.4822C17.3057 13.5463 17.8534 12.9128 18.7817 12.9936C19.087 13.0202 19.4298 13.1105 19.8864 13.2654C20.0198 13.3112 20.0198 13.3112 20.1495 13.3571C20.7772 13.5803 20.9476 13.6377 20.983 13.6453C20.8439 13.6138 21.2536 12.8732 21.3475 12.7483C21.3586 12.8276 21.3115 12.8163 21.1982 12.7937L19.9204 12.5379L20.83 11.6047C21.148 11.2785 21.5714 11.1167 22.0546 11.1167C22.1047 11.1167 22.1514 11.1144 22.305 11.105C22.4185 11.098 22.4185 11.098 22.5461 11.0928C23.4301 11.0641 24.064 11.3141 24.064 12.2231C24.064 12.5483 24.1051 13.0713 24.1729 13.468C24.1957 13.6015 24.2397 13.7264 24.1098 13.7812C24.1151 13.7339 24.4248 13.6117 24.9062 13.4104L24.964 13.3862C26.3629 12.8024 26.5263 12.7482 26.9772 13.0222C27.2777 13.2048 27.5638 13.5333 27.8844 14.0231L26.6991 14.799C26.4924 14.4831 26.3277 14.2914 26.2493 14.2379C26.4275 14.3617 25.8272 14.561 25.5097 14.6936L25.4528 14.7173C24.3637 15.1728 24.2201 15.2272 23.9087 15.2272C23.0612 15.2272 22.757 14.3591 22.6737 13.1159C22.4122 13.9766 21.6321 15.0628 20.9892 15.0628C20.7078 15.0628 20.8431 15.1074 19.6747 14.6918C19.5523 14.6485 19.5523 14.6485 19.4312 14.6069C19.0773 14.4869 18.8219 14.4195 18.6608 14.4051C18.6675 14.3975 18.6912 14.372 18.7178 14.3492L17.4001 14.4822Z" fill="var(--fill-0, #C09302)"/>
</g>
</g>
</g>
</svg>
