<svg preserveAspectRatio="none" width="100%" height="100%" overflow="visible" style="display: block;" viewBox="0 0 46 34" fill="none" xmlns="http://www.w3.org/2000/svg">
<g id="contents">
<path id="bottom" fill-rule="evenodd" clip-rule="evenodd" d="M31.1667 0H45.3334V34H31.1667V0Z" fill="var(--fill-0, #D9071E)"/>
<path id="left" fill-rule="evenodd" clip-rule="evenodd" d="M4.06802e-05 0H17V34H4.06802e-05V0Z" fill="var(--fill-0, #006923)"/>
<path id="middle" fill-rule="evenodd" clip-rule="evenodd" d="M14.1667 0H31.1667V34H14.1667V0Z" fill="var(--fill-0, white)"/>
<g id="mark">
<path id="Path 141" d="M19.8546 11.2581C19.7247 11.4745 19.6209 11.6626 19.5441 11.8177C19.7985 11.8928 19.9741 12.2528 20.1671 12.4309C20.6831 12.9064 20.6201 13.4369 19.9113 14.012C19.774 14.1233 20.0899 14.417 19.9669 14.7815C20.3053 14.8004 20.5477 14.8508 20.7706 14.9827C21.3966 15.3531 21.3373 16.0285 20.8605 16.5501C20.5226 16.9197 20.0716 17.2197 19.6466 17.3733C18.9394 17.6289 18.183 17.5314 18.1827 16.6263C18.1827 16.5909 18.1586 16.5196 18.4943 16.512C17.9554 16.5042 17.7336 15.024 17.7257 14.8557C17.7256 13.7307 17.2503 13.7307 17.2501 13.7307V13.1253H18.0714C18.5374 13.1253 18.4084 13.6866 18.5558 14.012C18.5915 13.952 18.6496 15.873 18.8419 15.7112C18.9137 15.651 19.4597 16.3401 19.5441 16.0384C19.6072 15.8118 19.2389 14.9211 19.2394 14.5423C19.2407 13.6613 19.5174 13.1606 19.5441 13.1253C19.4257 13.0836 19.2494 12.6156 19.17 12.6145C18.4421 12.6145 18.3437 12.4624 18.4943 11.8177C18.5747 11.4731 18.2997 11.0966 18.6407 10.5286L19.8546 11.2581ZM19.7931 15.6184L19.8077 15.6048C19.8099 15.6009 19.8123 15.5976 19.8146 15.595C19.8075 15.6028 19.8004 15.6107 19.7931 15.6184Z" fill="var(--fill-0, #A8AC71)"/>
<path id="Path 138" fill-rule="evenodd" clip-rule="evenodd" d="M20.3774 11.2106C20.3774 11.2106 19.4045 11.9652 19.5864 12.7697C19.7684 13.5742 21.6858 12.7697 21.454 11.9902C21.2222 11.2106 20.3774 11.2106 20.3774 11.2106Z" fill="var(--fill-0, #FCCA3D)"/>
<path id="Path 134" fill-rule="evenodd" clip-rule="evenodd" d="M27.294 17.5708C27.294 17.5708 28.6044 13.6872 26.5214 11.6769C24.4383 9.6666 22.0313 9.80112 22.0313 9.80112C22.0313 9.80112 21.3381 10.3161 22.0313 10.7089C22.7245 11.1017 22.434 11.4783 22.434 11.4783C22.434 11.4783 21.2732 10.2996 20.5025 10.9882C19.7319 11.6769 21.2219 11.5721 21.0642 12.0906C20.9065 12.6091 20.2382 14.9113 21.2147 16.0736C22.1911 17.2359 20.2915 16.9837 20.6778 16.9837C21.0642 16.9837 22.434 17.2542 22.434 16.9837C22.434 16.7131 22.9103 18.0355 23.3178 18.0355C23.7254 18.0355 24.04 17.5708 24.04 17.5708C24.04 17.5708 24.6113 18.0355 24.9594 18.0355C25.3075 18.0355 26.5214 17.7314 26.5214 17.7314L24.2271 15.7983C24.2271 15.7983 24.3654 14.9457 24.04 14.7611C23.7145 14.5766 26.6492 16.3966 26.879 16.9837C27.1088 17.5708 27.294 17.5708 27.294 17.5708Z" fill="var(--fill-0, #8F4620)"/>
<path id="Path 135" d="M15.6771 16.6127C15.6771 16.6127 15.8898 15.9347 16.1176 15.8876C16.3149 15.8469 16.7298 16.2125 16.7298 16.2125C17.4668 20.3065 19.2488 21.9055 22.2058 21.9055C25.1975 21.9055 27.0107 20.6905 28.0689 16.9147C28.0689 16.9147 28.6313 16.3402 28.8298 16.4041C29.0459 16.4736 29.3167 17.2336 29.3167 17.2336C28.1028 21.5653 25.8093 23.4938 22.2058 23.4938C18.5675 23.4938 16.5234 21.3135 15.6771 16.6127Z" fill="var(--fill-0, #9FAB2F)"/>
<path id="Path 136" fill-rule="evenodd" clip-rule="evenodd" d="M18.8891 19.3466C18.8891 19.3466 23.1452 20.2495 24.8252 20.2495C26.5051 20.2495 23.3512 21.6206 22.1206 21.6206C21.5823 21.6206 20.9334 21.2942 20.174 20.6416C20.0379 20.5246 20.1697 20.2628 19.7551 20.2593C19.177 20.2543 18.4588 20.1187 18.5275 20.036C18.5928 19.9574 19.434 19.9337 19.3529 19.8478C19.2192 19.706 18.8891 19.3466 18.8891 19.3466Z" fill="var(--fill-0, #2FC2DC)"/>
<rect id="Rectangle 38" x="20.778" y="19.975" width="2.83333" height="1.51786" rx="0.236111" fill="var(--fill-0, #F9AA51)"/>
<path id="Path 137" d="M17.2487 17.1925C17.2487 17.1925 17.2487 16.6612 17.6085 16.3789C18.021 16.0553 18.4085 16.3789 18.4085 16.3789C19.9178 18.5303 22.175 19.238 25.3319 18.4993C25.3319 18.4993 26.2758 18.8078 26.3233 19.0104C26.3834 19.2676 25.6547 19.8788 25.6547 19.8788C21.9643 20.7423 19.1116 19.8478 17.2487 17.1925Z" fill="var(--fill-0, #259485)"/>
<path id="Path 139" fill-rule="evenodd" clip-rule="evenodd" d="M23.5035 17.4962C23.5035 17.4962 21.7841 18.4013 22.3573 18.4013C22.9304 18.4013 25.1734 18.8538 24.7369 18.4013C24.3005 17.9487 23.5035 17.4962 23.5035 17.4962Z" fill="var(--fill-0, #FCCA3D)"/>
<path id="Path 140" fill-rule="evenodd" clip-rule="evenodd" d="M21.4708 16.4167C21.4708 16.4167 21.1441 15.4731 20.4642 15.4731C19.7844 15.4731 19.9763 16.2471 19.6494 16.2471C19.3224 16.2471 19.954 16.7918 20.2355 16.7918C20.517 16.7918 21.4708 16.4167 21.4708 16.4167Z" fill="var(--fill-0, #FCCA3D)"/>
</g>
</g>
</svg>
