<svg preserveAspectRatio="none" width="100%" height="100%" overflow="visible" style="display: block;" viewBox="0 0 46 34" fill="none" xmlns="http://www.w3.org/2000/svg">
<g id="contents">
<path id="middle" fill-rule="evenodd" clip-rule="evenodd" d="M4.06802e-05 0H45.3334V34H4.06802e-05V0Z" fill="var(--fill-0, #F7FCFF)"/>
<path id="Combined Shape" fill-rule="evenodd" clip-rule="evenodd" d="M4.06802e-05 20.7778V23.6111H45.3334V20.7778H4.06802e-05Z" fill="var(--fill-0, #E31D1C)"/>
<path id="Combined Shape_2" fill-rule="evenodd" clip-rule="evenodd" d="M4.06802e-05 25.9722V28.8056H45.3334V25.9722H4.06802e-05Z" fill="var(--fill-0, #E31D1C)"/>
<path id="Combined Shape_3" fill-rule="evenodd" clip-rule="evenodd" d="M4.06802e-05 10.3889V13.2222H45.3334V10.3889H4.06802e-05Z" fill="var(--fill-0, #E31D1C)"/>
<path id="Combined Shape_4" fill-rule="evenodd" clip-rule="evenodd" d="M4.06802e-05 31.1667V34H45.3334V31.1667H4.06802e-05Z" fill="var(--fill-0, #E31D1C)"/>
<path id="Combined Shape_5" fill-rule="evenodd" clip-rule="evenodd" d="M4.06802e-05 15.5833V18.4167H45.3334V15.5833H4.06802e-05Z" fill="var(--fill-0, #E31D1C)"/>
<path id="Combined Shape_6" fill-rule="evenodd" clip-rule="evenodd" d="M4.06802e-05 0V2.83333H45.3334V0H4.06802e-05Z" fill="var(--fill-0, #E31D1C)"/>
<path id="Combined Shape_7" fill-rule="evenodd" clip-rule="evenodd" d="M4.06802e-05 5.19443V8.02776H45.3334V5.19443H4.06802e-05Z" fill="var(--fill-0, #E31D1C)"/>
<rect id="Rectangle 82" x="4.06802e-05" width="28.3333" height="18.4167" fill="var(--fill-0, #2E42A5)"/>
<path id="Combined Shape_8" d="M2.90784 14.1209H3.92444L3.12561 14.9344L3.43518 16.2176L2.44006 15.4969L1.41174 16.2176L1.75842 14.9344L0.845337 14.1209H2.0387L2.43811 13.0741L2.90784 14.1209ZM8.57385 14.1209H9.59143L8.7926 14.9344L9.1012 16.2176L8.10608 15.4969L7.07776 16.2176L7.42542 14.9344L6.51233 14.1209H7.70471L8.1051 13.0741L8.57385 14.1209ZM14.2408 14.1209H15.2574L14.4586 14.9344L14.7682 16.2176L13.7731 15.4969L12.7448 16.2176L13.0924 14.9344L12.1783 14.1209H13.3717L13.7721 13.0741L14.2408 14.1209ZM19.9078 14.1209H20.9244L20.1256 14.9344L20.4352 16.2176L19.4401 15.4969L18.4117 16.2176L18.7584 14.9344L17.8453 14.1209H19.0387L19.4381 13.0741L19.9078 14.1209ZM25.5739 14.1209H26.5914L25.7926 14.9344L26.1012 16.2176L25.1061 15.4969L24.0778 16.2176L24.4254 14.9344L23.5123 14.1209H24.7047L25.1051 13.0741L25.5739 14.1209ZM5.74084 11.2879H6.75745L5.95862 12.1014L6.26819 13.3836L5.27307 12.6629L4.24475 13.3836L4.59241 12.1014L3.67834 11.2879H4.8717L5.27209 10.241L5.74084 11.2879ZM11.4078 11.2879H12.4244L11.6256 12.1014L11.9352 13.3836L10.9401 12.6629L9.91174 13.3836L10.2584 12.1014L9.34534 11.2879H10.5387L10.9381 10.241L11.4078 11.2879ZM17.0739 11.2879H18.0914L17.2926 12.1014L17.6012 13.3836L16.6061 12.6629L15.5778 13.3836L15.9254 12.1014L15.0123 11.2879H16.2047L16.6051 10.241L17.0739 11.2879ZM22.7408 11.2879H23.7574L22.9586 12.1014L23.2682 13.3836L22.2731 12.6629L21.2448 13.3836L21.5924 12.1014L20.6783 11.2879H21.8717L22.2721 10.241L22.7408 11.2879ZM2.90784 8.45491H3.92444L3.12561 9.26741L3.43518 10.5506L2.44006 9.82991L1.41174 10.5506L1.75842 9.26741L0.845337 8.45491H2.0387L2.43811 7.40804L2.90784 8.45491ZM8.57385 8.45491H9.59143L8.7926 9.26741L9.1012 10.5506L8.10608 9.82991L7.07776 10.5506L7.42542 9.26741L6.51233 8.45491H7.70471L8.1051 7.40804L8.57385 8.45491ZM14.2408 8.45491H15.2574L14.4586 9.26741L14.7682 10.5506L13.7731 9.82991L12.7448 10.5506L13.0924 9.26741L12.1783 8.45491H13.3717L13.7721 7.40804L14.2408 8.45491ZM19.9078 8.45491H20.9244L20.1256 9.26741L20.4352 10.5506L19.4401 9.82991L18.4117 10.5506L18.7584 9.26741L17.8453 8.45491H19.0387L19.4381 7.40804L19.9078 8.45491ZM25.5739 8.45491H26.5914L25.7926 9.26741L26.1012 10.5506L25.1061 9.82991L24.0778 10.5506L24.4254 9.26741L23.5123 8.45491H24.7047L25.1051 7.40804L25.5739 8.45491ZM5.74084 5.62093H6.75745L5.95862 6.4344L6.26819 7.71761L5.27307 6.9969L4.24475 7.71761L4.59241 6.4344L3.67834 5.62093H4.8717L5.27209 4.57405L5.74084 5.62093ZM11.4078 5.62093H12.4244L11.6256 6.4344L11.9352 7.71761L10.9401 6.9969L9.91174 7.71761L10.2584 6.4344L9.34534 5.62093H10.5387L10.9381 4.57405L11.4078 5.62093ZM17.0739 5.62093H18.0914L17.2926 6.4344L17.6012 7.71761L16.6061 6.9969L15.5778 7.71761L15.9254 6.4344L15.0123 5.62093H16.2047L16.6051 4.57405L17.0739 5.62093ZM22.7408 5.62093H23.7574L22.9586 6.4344L23.2682 7.71761L22.2731 6.9969L21.2448 7.71761L21.5924 6.4344L20.6783 5.62093H21.8717L22.2721 4.57405L22.7408 5.62093ZM2.90784 2.78792H3.92444L3.12561 3.6014L3.43518 4.88362L2.44006 4.16292L1.41174 4.88362L1.75842 3.6014L0.845337 2.78792H2.0387L2.43811 1.74105L2.90784 2.78792ZM8.57385 2.78792H9.59143L8.7926 3.6014L9.1012 4.88362L8.10608 4.16292L7.07776 4.88362L7.42542 3.6014L6.51233 2.78792H7.70471L8.1051 1.74105L8.57385 2.78792ZM14.2408 2.78792H15.2574L14.4586 3.6014L14.7682 4.88362L13.7731 4.16292L12.7448 4.88362L13.0924 3.6014L12.1783 2.78792H13.3717L13.7721 1.74105L14.2408 2.78792ZM19.9078 2.78792H20.9244L20.1256 3.6014L20.4352 4.88362L19.4401 4.16292L18.4117 4.88362L18.7584 3.6014L17.8453 2.78792H19.0387L19.4381 1.74105L19.9078 2.78792ZM25.5739 2.78792H26.5914L25.7926 3.6014L26.1012 4.88362L25.1061 4.16292L24.0778 4.88362L24.4254 3.6014L23.5123 2.78792H24.7047L25.1051 1.74105L25.5739 2.78792Z" fill="var(--fill-0, #F7FCFF)"/>
</g>
</svg>
