<svg preserveAspectRatio="none" width="100%" height="100%" overflow="visible" style="display: block;" viewBox="0 0 130 32" fill="none" xmlns="http://www.w3.org/2000/svg">
<g id="Adobe-logo logo" clip-path="url(#clip0_67_1160)">
<path id="Vector" d="M12.9843 1.00156H21.7643L34.1643 30.8816H24.8843L17.0443 11.0416L11.8643 24.0616H18.0243L20.4843 30.8816H0.444336L12.9843 1.00156ZM44.5043 7.20156C45.4043 7.20156 46.3843 7.28156 47.3643 7.52156V0.121561H55.1243V29.5616C53.3443 30.3616 49.5043 31.3416 45.6643 31.3416C38.7043 31.3416 32.7243 27.3816 32.7243 19.4816C32.7243 11.5816 38.4843 7.22156 44.5043 7.22156V7.20156ZM45.4843 24.9416C46.2043 24.9416 46.7843 24.8016 47.3643 24.6216V13.7816C46.7843 13.5616 46.2043 13.4616 45.4443 13.4616C42.9043 13.4616 40.5443 15.3416 40.5443 19.3016C40.5443 23.2616 42.9443 24.9216 45.4843 24.9216V24.9416ZM68.9443 7.20156C75.4043 7.20156 80.9043 11.5616 80.9043 19.2416C80.9043 26.9216 75.4243 31.2816 68.9443 31.2816C62.4643 31.2816 56.9443 26.9216 56.9443 19.2416C56.9443 11.5616 62.3843 7.20156 68.9443 7.20156ZM68.9443 24.8216C71.1643 24.8216 73.2243 23.0416 73.2243 19.2416C73.2243 15.4416 71.1643 13.6616 68.9443 13.6616C66.7243 13.6616 64.7043 15.4416 64.7043 19.2416C64.7043 23.0416 66.6243 24.8216 68.9443 24.8216ZM82.7643 0.121561H90.5643V7.52156C91.5043 7.34156 92.4843 7.20156 93.4643 7.20156C99.5243 7.20156 105.144 11.1616 105.144 18.9216C105.144 27.1216 99.1643 31.2816 92.0843 31.2816C89.0443 31.2816 85.1643 30.6616 82.7643 29.5416V0.101562V0.121561ZM92.2643 24.9016C94.9443 24.9016 97.3843 22.9816 97.3843 19.0216C97.3843 15.3216 94.9843 13.5816 92.3843 13.5816C91.6643 13.5816 91.0843 13.6616 90.5643 13.9016V24.6016C91.0043 24.7816 91.5843 24.9216 92.2643 24.9216V24.9016ZM118.384 7.20156C124.224 7.20156 129.584 10.9416 129.584 18.4816C129.584 19.5016 129.544 20.4816 129.404 21.4616H114.864C115.664 24.1016 117.984 25.3416 120.884 25.3416C123.244 25.3416 125.424 24.7616 127.884 23.7016V29.6416C125.604 30.8016 122.884 31.2816 120.084 31.2816C112.684 31.2816 106.924 26.8216 106.924 19.2416C106.924 11.6616 112.144 7.20156 118.384 7.20156ZM122.304 16.6016C121.904 14.0616 120.204 13.0416 118.464 13.0416C116.724 13.0416 115.304 14.1216 114.724 16.6016H122.304Z" fill="var(--fill-0, #EB1000)"/>
</g>
<defs>
<clipPath id="clip0_67_1160">
<rect width="130" height="32" fill="white"/>
</clipPath>
</defs>
</svg>
