<svg preserveAspectRatio="none" width="100%" height="100%" overflow="visible" style="display: block;" viewBox="0 0 194 24" fill="none" xmlns="http://www.w3.org/2000/svg">
<g id="Atlassian-logo logo" clip-path="url(#clip0_67_1046)">
<path id="path13" d="M7.03817 10.9386C6.96774 10.8463 6.87468 10.7738 6.76801 10.7281C6.66133 10.6824 6.54465 10.665 6.42927 10.6776C6.3139 10.6902 6.20373 10.7324 6.10946 10.8001C6.01519 10.8678 5.94 10.9587 5.89119 11.064L0.0738576 22.6987C0.0207206 22.8046 -0.00447239 22.9223 0.000669403 23.0407C0.0058112 23.1591 0.0411172 23.2742 0.103237 23.3751C0.165357 23.476 0.25223 23.5593 0.355611 23.6172C0.458993 23.6751 0.575454 23.7056 0.693943 23.7059H8.79448C8.92561 23.7084 9.05459 23.6724 9.16545 23.6023C9.27631 23.5322 9.36417 23.4311 9.41815 23.3116C11.1637 19.7273 10.1063 14.2182 7.03817 10.9386Z" fill="url(#paint0_linear_67_1046)"/>
<path id="path15" d="M11.307 0.372025C9.85685 2.60298 9.01173 5.17269 8.85463 7.82891C8.69753 10.4851 9.23386 13.1366 10.411 15.5229L14.3358 23.3116C14.393 23.4273 14.4813 23.5248 14.5909 23.5932C14.7004 23.6616 14.8268 23.6981 14.9559 23.6987H23.0564C23.17 23.6893 23.2796 23.653 23.3764 23.5928C23.4731 23.5326 23.554 23.4502 23.6126 23.3524C23.6711 23.2547 23.7054 23.1444 23.7128 23.0307C23.7202 22.917 23.7004 22.8032 23.655 22.6987L12.4899 0.372025C12.4364 0.260545 12.3525 0.166449 12.2479 0.100587C12.1432 0.0347247 12.0221 -0.000221252 11.8985 -0.000221252C11.7748 -0.000221252 11.6537 0.0347247 11.5491 0.100587C11.4444 0.166449 11.3605 0.260545 11.307 0.372025Z" fill="var(--fill-0, #2684FF)"/>
<path id="polygon17" d="M182.443 12.7738L188.325 23.7059H193.551V4.19296H189.393V16.7846L187.82 13.1322L183.096 4.19296H176.533V23.7059H180.691V8.82389L182.443 12.7738Z" fill="var(--fill-0, #0052CC)"/>
<path id="rect19" d="M150.088 4.19296H145.543V23.7059H150.088V4.19296Z" fill="var(--fill-0, #0052CC)"/>
<path id="path21" d="M140.299 17.9351C140.299 14.5193 138.489 12.9171 133.378 11.8167C130.557 11.193 129.876 10.5694 129.876 9.66613C129.876 8.53707 130.883 8.06036 132.743 8.06036C135.001 8.06036 137.231 8.74496 139.339 9.6948V5.23234C137.315 4.31082 135.11 3.854 132.887 3.89539C127.836 3.89539 125.224 6.09257 125.224 9.68763C125.224 12.5551 126.56 14.8526 131.786 15.8634C134.905 16.5157 135.561 17.0211 135.561 18.0606C135.561 19.1 134.905 19.7237 132.693 19.7237C130.039 19.6752 127.437 18.9722 125.12 17.6771V22.3689C126.693 23.1395 128.772 23.9998 132.647 23.9998C138.109 23.9998 140.278 21.566 140.278 17.9423" fill="var(--fill-0, #0052CC)"/>
<path id="path23" d="M121.381 17.9351C121.381 14.5193 119.589 12.9171 114.463 11.8167C111.643 11.193 110.958 10.5694 110.958 9.66613C110.958 8.53707 111.969 8.06036 113.825 8.06036C116.084 8.06036 118.309 8.74496 120.417 9.6948V5.23234C118.393 4.31082 116.189 3.854 113.965 3.89539C108.919 3.89539 106.302 6.09257 106.302 9.68763C106.302 12.5551 107.639 14.8526 112.868 15.8634C115.987 16.5157 116.639 17.0211 116.639 18.0606C116.639 19.1 115.987 19.7237 113.772 19.7237C111.117 19.6752 108.516 18.9722 106.198 17.6771V22.3689C107.775 23.1395 109.854 23.9998 113.725 23.9998C119.191 23.9998 121.356 21.566 121.356 17.9423" fill="var(--fill-0, #0052CC)"/>
<path id="polygon25" d="M75.5988 19.4872V4.19296H71.0252V23.7059H80.3659L81.8355 19.4872H75.5988Z" fill="var(--fill-0, #0052CC)"/>
<path id="polygon27" d="M62.1935 23.7059V8.40811H67.5986V4.19296H52.5696V8.40811H57.6199V23.7059H62.1935Z" fill="var(--fill-0, #0052CC)"/>
<path id="path29" d="M45.9387 4.19296H39.9457L33.1355 23.7059H38.3507L39.3185 20.4191C41.6936 21.1171 44.2194 21.1171 46.5946 20.4191L47.5588 23.7059H52.756L45.9387 4.19296ZM42.9422 16.9029C42.093 16.9041 41.248 16.7834 40.4332 16.5445L42.9422 8.02817L45.4512 16.5445C44.6363 16.7832 43.7914 16.9039 42.9422 16.9029Z" fill="var(--fill-0, #0052CC)"/>
<path id="path31" d="M96.4666 4.19296H90.4737L83.6635 23.7059H88.8607L89.8285 20.4191C92.2037 21.1171 94.7295 21.1171 97.1046 20.4191L98.0688 23.7059H103.266L96.4666 4.19296ZM93.4702 16.9029C92.621 16.9044 91.776 16.7837 90.9611 16.5445L93.4702 8.02817L95.9792 16.5445C95.1644 16.7838 94.3194 16.9045 93.4702 16.9029Z" fill="var(--fill-0, #0052CC)"/>
<path id="path33" d="M166.461 4.19296H160.468L153.658 23.7059H158.855L159.819 20.4191C162.194 21.1171 164.72 21.1171 167.095 20.4191L168.06 23.7059H173.26L166.461 4.19296ZM163.465 16.9029C162.615 16.9039 161.77 16.7832 160.956 16.5445L163.465 8.02817L165.974 16.5445C165.159 16.7832 164.314 16.9039 163.465 16.9029Z" fill="var(--fill-0, #0052CC)"/>
</g>
<defs>
<linearGradient id="paint0_linear_67_1046" x1="10.2282" y1="12.7343" x2="4.08828" y2="23.3725" gradientUnits="userSpaceOnUse">
<stop stop-color="#0052CC"/>
<stop offset="0.92" stop-color="#2684FF"/>
</linearGradient>
<clipPath id="clip0_67_1046">
<rect width="193.551" height="24" fill="white"/>
</clipPath>
</defs>
</svg>
