<svg preserveAspectRatio="none" width="100%" height="100%" overflow="visible" style="display: block;" viewBox="0 0 156 24" fill="none" xmlns="http://www.w3.org/2000/svg">
<g id="Group">
<path id="Vector" d="M13.1229 15.3457C13.9282 16.274 14.3308 17.3754 14.3308 18.6464C14.3308 19.6013 14.0845 20.4598 13.5888 21.2184C13.093 21.977 12.341 22.5826 11.3362 23.0351C10.328 23.4843 9.09022 23.7106 7.62287 23.7106H-3.05176e-05V5.15076H6.1888C8.39814 5.15076 10.0685 5.56667 11.1997 6.3985C12.331 7.23034 12.8967 8.31504 12.8967 9.65928C12.8967 10.5976 12.6372 11.466 12.1148 12.2712C11.5924 13.0764 10.714 13.6088 9.47619 13.875C11.1033 13.9282 12.3177 14.4174 13.1229 15.3457ZM8.70758 8.73096C8.19517 8.4315 7.40992 8.28177 6.34851 8.28177L4.14914 8.30839L3.59348 8.28177L3.42379 8.30839V12.2845H4.15247C5.61982 12.2845 6.67126 12.2679 7.30678 12.2313C8.08537 12.1614 8.64103 11.9485 8.97709 11.5958C9.31315 11.2431 9.47952 10.764 9.47952 10.165C9.47952 9.51288 9.22332 9.03375 8.71091 8.73429L8.70758 8.73096ZM9.92871 16.1542C9.27323 15.6784 8.26837 15.4388 6.9075 15.4388H3.42379V20.5829H6.77441C8.18852 20.5829 9.22997 20.35 9.90209 19.8808C10.5742 19.4117 10.9103 18.7895 10.9103 18.0109C10.9103 17.2323 10.5842 16.6334 9.92871 16.1542Z" fill="var(--fill-0, white)"/>
<path id="Vector_2" d="M48.5458 23.1648C47.2481 23.7204 45.854 23.9999 44.37 23.9999C42.53 23.9999 40.853 23.594 39.3324 22.7788C37.8119 21.9669 36.6074 20.8356 35.7123 19.3849C34.8206 17.9342 34.3747 16.2839 34.3747 14.4272C34.3747 12.5706 34.8206 10.9202 35.7123 9.46949C36.604 8.01878 37.8119 6.88749 39.3324 6.07562C40.853 5.26375 42.53 4.85449 44.37 4.85449C45.854 4.85449 47.2481 5.13399 48.5458 5.68965C49.8435 6.24531 50.9548 7.02058 51.8731 8.0088L49.5141 10.3146C48.9118 9.58928 48.1665 9.02363 47.2748 8.6177C46.383 8.21176 45.4148 8.0088 44.37 8.0088C43.1489 8.0088 42.0409 8.26833 41.0427 8.79072C40.0445 9.31311 39.2526 10.0584 38.6703 11.03C38.088 12.0016 37.7952 13.1329 37.7952 14.4239C37.7952 15.7149 38.088 16.8462 38.6703 17.8178C39.2526 18.7893 40.0445 19.538 41.0427 20.057C42.0409 20.5794 43.1489 20.839 44.37 20.839C45.4115 20.839 46.3797 20.636 47.2748 20.2301C48.1665 19.8241 48.9151 19.2585 49.5141 18.5331L51.8731 20.839C50.9548 21.8305 49.8435 22.6024 48.5458 23.1581V23.1648Z" fill="var(--fill-0, white)"/>
<path id="Vector_3" d="M65.9709 23.7106L57.4596 14.2443L65.5716 5.15076H70.2631L61.8583 14.2443L70.6591 23.7106H65.9675H65.9709Z" fill="var(--fill-0, white)"/>
<path id="Vector_4" d="M75.7666 19.5882C76.4188 20.0374 77.2872 20.3701 78.3653 20.583C78.7379 20.6729 79.1871 20.7161 79.7162 20.7161C80.6878 20.7161 81.4963 20.5132 82.1418 20.1072C82.7873 19.7013 83.1101 19.099 83.1101 18.3038C83.1101 17.7548 82.9237 17.3189 82.5544 16.9928C82.1817 16.6668 81.7758 16.4305 81.3333 16.2908C80.8907 16.151 80.3417 16.008 79.6896 15.8682L79.0274 15.7351C77.9826 15.5222 77.1142 15.3159 76.4155 15.1129C75.7167 14.9099 75.0546 14.6038 74.4257 14.1979C73.7969 13.792 73.2911 13.2629 72.9018 12.6074C72.4759 11.8654 72.2663 11.0602 72.2663 10.1951C72.2663 9.46977 72.426 8.77103 72.7421 8.10223C73.0615 7.43011 73.5274 6.83785 74.1462 6.32544C74.8882 5.70656 75.6702 5.31061 76.492 5.13093C77.3139 4.95458 78.2289 4.86475 79.237 4.86475C80.2452 4.86475 81.28 5.01448 82.2849 5.31394C83.2931 5.61339 84.2214 6.05593 85.0698 6.63821C85.722 7.08075 86.2444 7.5133 86.6337 7.93587L84.0883 10.1352C82.9204 9.05718 81.5529 8.35844 79.979 8.04234C79.5032 7.93587 78.9875 7.88263 78.4418 7.88263C77.3105 7.88263 76.5253 8.21869 76.0827 8.89081C75.8898 9.22687 75.7899 9.55295 75.7899 9.87237C75.7899 10.4214 76.0095 10.8639 76.4521 11.1966C76.858 11.4961 77.3671 11.749 77.976 11.9519C78.5849 12.1549 79.3934 12.3712 80.4016 12.6008L81.1436 12.7871C82.205 13.0333 83.1134 13.3394 83.8753 13.7021C84.634 14.0648 85.2795 14.5639 85.8118 15.1994C86.1113 15.5521 86.3509 15.998 86.5272 16.537C86.7036 17.076 86.7934 17.645 86.7934 18.2473C86.7934 19.6614 86.3076 20.8293 85.336 21.7476C84.5774 22.4896 83.6657 23.0453 82.6043 23.4179C81.5429 23.7906 80.4216 23.9736 79.237 23.9736C77.61 23.9736 76.0694 23.6342 74.6121 22.9521C73.1547 22.2733 72.0267 21.3051 71.2315 20.0473L71.1516 19.9142L73.7769 17.6616C74.449 18.4935 75.1112 19.1323 75.7666 19.5848V19.5882Z" fill="var(--fill-0, white)"/>
<path id="Vector_5" d="M92.4963 5.15076V20.5796H100.276V23.7073H89.0758V5.15076H92.4963Z" fill="var(--fill-0, white)"/>
<path id="Vector_6" d="M127.696 19.5882C128.348 20.0374 129.217 20.3701 130.295 20.583C130.667 20.6729 131.117 20.7161 131.646 20.7161C132.617 20.7161 133.426 20.5132 134.071 20.1072C134.717 19.7013 135.039 19.099 135.039 18.3038C135.039 17.7548 134.853 17.3189 134.484 16.9928C134.111 16.6668 133.705 16.4305 133.263 16.2908C132.82 16.151 132.271 16.008 131.619 15.8682L130.957 15.7351C129.912 15.5222 129.044 15.3159 128.345 15.1129C127.646 14.9099 126.984 14.6038 126.355 14.1979C125.726 13.792 125.221 13.2629 124.831 12.6074C124.405 11.8654 124.196 11.0602 124.196 10.1951C124.196 9.46977 124.355 8.77103 124.672 8.10223C124.991 7.43011 125.457 6.83785 126.076 6.32544C126.818 5.70656 127.6 5.31061 128.421 5.13093C129.243 4.95458 130.158 4.86475 131.166 4.86475C132.175 4.86475 133.209 5.01448 134.214 5.31394C135.222 5.61339 136.151 6.05593 136.999 6.63821C137.651 7.08075 138.174 7.5133 138.563 7.93587L136.018 10.1352C134.85 9.05718 133.482 8.35844 131.908 8.04234C131.433 7.93587 130.917 7.88263 130.371 7.88263C129.24 7.88263 128.455 8.21869 128.012 8.89081C127.819 9.22687 127.719 9.55295 127.719 9.87237C127.719 10.4214 127.939 10.8639 128.382 11.1966C128.787 11.4961 129.297 11.749 129.905 11.9519C130.514 12.1549 131.323 12.3712 132.331 12.6008L133.073 12.7871C134.134 13.0333 135.043 13.3394 135.805 13.7021C136.563 14.0648 137.209 14.5639 137.741 15.1994C138.041 15.5521 138.28 15.998 138.457 16.537C138.633 17.076 138.723 17.645 138.723 18.2473C138.723 19.6614 138.237 20.8293 137.265 21.7476C136.507 22.4896 135.595 23.0453 134.534 23.4179C133.472 23.7906 132.351 23.9736 131.166 23.9736C129.539 23.9736 127.999 23.6342 126.542 22.9521C125.084 22.2733 123.956 21.3051 123.161 20.0473L123.081 19.9142L125.706 17.6616C126.378 18.4935 127.041 19.1323 127.696 19.5848V19.5882Z" fill="var(--fill-0, white)"/>
<path id="Vector_7" d="M152.075 15.8614H144.296V23.7106H140.876V5.15076H144.296V12.7071H152.075V5.15076H155.496V23.7106H152.075V15.8614Z" fill="var(--fill-0, white)"/>
<path id="Vector_8" d="M57.5029 5.15076H54.0824V23.7106H57.5029V5.15076Z" fill="var(--fill-0, white)"/>
<g id="Group_2">
<path id="Vector_9" d="M111.316 11.7223L105.939 23.6574H102.013L109.442 7.70288L111.316 11.7223Z" fill="var(--fill-0, white)"/>
<path id="Vector_10" d="M118.686 23.7105H122.692L111.755 0H107.762L118.686 23.7105Z" fill="var(--fill-0, #E63A82)"/>
</g>
<g id="Group_3">
<path id="Vector_11" d="M23.9601 11.7225L18.5798 23.6577H14.6569L22.0868 7.70312L23.9601 11.7225Z" fill="var(--fill-0, white)"/>
<path id="Vector_12" d="M26.7151 5.16748H22.8787L31.3268 23.7107H35.3362L26.7151 5.16748Z" fill="var(--fill-0, white)"/>
</g>
</g>
</svg>
