<svg preserveAspectRatio="none" width="100%" height="100%" overflow="visible" style="display: block;" viewBox="0 0 80 32" fill="none" xmlns="http://www.w3.org/2000/svg">
<g id="Group">
<path id="Vector" fill-rule="evenodd" clip-rule="evenodd" d="M5.33929 26.7744L-0.000121307 31.045V0.38125H5.33929V26.7744ZM5.6446 28.1471L0.915338 31.9609H79.788V28.1471H5.6446Z" fill="var(--fill-0, #A02C2B)"/>
<path id="Vector_2" fill-rule="evenodd" clip-rule="evenodd" d="M24.2569 11.8996C24.2569 11.8996 27.3844 11.0603 27.3844 6.02623C27.461 0.686823 21.0533 0.610613 21.0533 0.610613H9.30613C9.30613 0.610613 10.2978 0.610611 10.2978 3.58516V23.3419L14.7218 19.832V14.0354H20.9004C20.9004 14.0354 23.875 14.112 23.875 17.0866C23.875 17.0866 24.4856 20.9004 20.7475 20.9004H14.6455L10.374 24.6389H21.8159C21.8159 24.6389 28.9862 24.1045 28.9862 18.1549C28.9862 12.2049 24.2569 11.8996 24.2569 11.8996ZM20.5193 10.6031H14.7218V4.27199H20.2903C20.2903 4.27199 22.6547 4.6535 22.6547 7.47563C22.6547 10.2978 20.5193 10.6031 20.5193 10.6031ZM67.4309 0C60.6421 0 55.1498 5.64472 55.1498 12.6626C55.1498 19.681 60.6421 25.3248 67.4309 25.3248C74.1435 25.3248 79.6358 19.681 79.6358 12.6626C79.6358 5.64472 74.1439 0 67.4309 0ZM67.4309 21.511C63.3113 21.511 59.9552 17.5448 59.9552 12.5864C59.9552 7.62806 63.3118 3.66183 67.4309 3.66183C71.6266 3.66183 74.9827 7.62852 74.9827 12.5864C74.9832 17.5448 71.5495 21.511 67.4309 21.511ZM32.4185 24.7146L36.4614 21.2057C37.3768 21.2057 40.5043 20.8999 40.5043 20.8999C40.5043 20.8999 47.5217 19.9854 47.5988 11.8996C47.5988 4.95789 40.3518 4.50062 40.3518 4.50062H36.4614V19.832L32.1898 23.4181V3.05122C32.1898 0.839249 31.5035 0.686825 31.5035 0.686825H40.8091C40.8091 0.686825 52.8616 0.915459 52.8616 11.9758C52.8616 24.6384 40.5043 24.7908 40.5043 24.7908C40.5043 24.7908 34.1732 24.9433 32.4185 24.7146Z" fill="var(--fill-0, #354997)"/>
</g>
</svg>
