<svg preserveAspectRatio="none" width="100%" height="100%" overflow="visible" style="display: block;" viewBox="0 0 184 40" fill="none" xmlns="http://www.w3.org/2000/svg">
<g id="g598">
<g id="g588">
<path id="path568" d="M43.1198 26.9265C43.1198 23.0065 45.9998 19.8865 50.1598 19.8865C54.3198 19.8865 54.2398 20.7665 55.5198 21.9665L53.5998 24.1265C52.5598 23.1665 51.5198 22.6065 50.1598 22.6065C47.8398 22.6065 46.2398 24.5265 46.2398 26.8465C46.2398 29.1665 47.8398 31.1665 50.1598 31.1665C52.4798 31.1665 52.6398 30.5265 53.7598 29.5665L55.6798 31.4865C54.3198 33.0065 52.7198 33.8865 50.1598 33.8865C46.1598 33.8865 43.1998 30.7665 43.1998 26.9265H43.1198Z" fill="var(--fill-0, white)"/>
<path id="path570" d="M57.9999 20.1262H60.9599V25.4862H66.4799V20.1262H69.4399V33.6462H66.4799V28.2062H60.9599V33.6462H57.9999V20.1262Z" fill="var(--fill-0, white)"/>
<path id="path572" d="M73.0397 20.2065H83.2797V22.8465H75.9997V25.5665H82.3997V28.2065H75.9997V31.0065H83.3597V33.6465H73.0397V20.0465V20.2065Z" fill="var(--fill-0, white)"/>
<path id="path574" d="M85.3598 27.0064C85.3598 23.0864 88.3198 19.9664 92.3998 19.9664C96.4798 19.9664 96.4798 20.8464 97.7598 22.0464L95.8398 24.2064C94.7998 23.2464 93.7598 22.6864 92.3998 22.6864C90.0798 22.6864 88.4798 24.6064 88.4798 26.9264C88.4798 29.2464 90.0798 31.2464 92.3998 31.2464C93.9198 31.2464 94.8798 30.6064 95.9998 29.6464L97.9198 31.5664C96.5598 33.0864 94.9598 33.9664 92.3998 33.9664C88.3998 33.9664 85.4398 30.8464 85.4398 27.0064H85.3598Z" fill="var(--fill-0, white)"/>
<path id="path576" d="M100.08 20.2863H103.04V26.2063L108.56 20.2863H112.16L106.64 26.0463L112.4 33.8863H108.8L104.64 28.1263L103.04 29.7263V33.8863H100.08V20.3663V20.2863Z" fill="var(--fill-0, white)"/>
<path id="path578" d="M120.48 20.2863H126C129.2 20.2863 131.2 22.2063 131.2 25.0063C131.2 28.2063 128.72 29.8063 125.68 29.8063H123.44V33.8863H120.48V20.3663V20.2863ZM125.76 27.1663C127.28 27.1663 128.08 26.2863 128.16 25.0863C128.16 23.7263 127.2 23.0063 125.76 23.0063H123.44V27.1663H125.84H125.76Z" fill="var(--fill-0, white)"/>
<path id="path580" d="M133.12 27.1662C133.12 23.2462 136.16 20.1262 140.32 20.1262C144.48 20.1262 147.52 23.2462 147.44 27.0862C147.44 31.0062 144.4 34.1262 140.24 34.1262C136.08 34.1262 133.04 31.0062 133.12 27.1662ZM144.4 27.1662C144.4 24.8462 142.72 22.8462 140.32 22.8462C137.92 22.8462 136.24 24.7662 136.24 27.0862C136.24 29.4062 137.92 31.4062 140.32 31.4062C142.72 31.4062 144.4 29.4862 144.4 27.1662Z" fill="var(--fill-0, white)"/>
<path id="path582" d="M150.4 20.3664H153.36V33.8864H150.4V20.3664Z" fill="var(--fill-0, white)"/>
<path id="path584" d="M157.12 20.3664H159.84L166.16 28.6864V20.3664H169.12V33.8864H166.56L160 25.2464V33.8864H157.04V20.3664H157.12Z" fill="var(--fill-0, white)"/>
<path id="path586" d="M175.92 23.1665H171.84V20.4465H183.04V23.2465H178.96V34.0465H176V23.2465L175.92 23.1665Z" fill="var(--fill-0, white)"/>
</g>
<path id="path594" d="M40.7199 9.96646C38.5599 12.6065 34.7199 13.0065 32.0799 10.9265C29.4399 8.76645 29.0399 4.92645 31.1199 2.28645C33.2799 -0.353547 37.1199 -0.753547 39.7599 1.32645C42.3999 3.48645 42.7999 7.32646 40.7199 9.96646Z" fill="var(--fill-0, white)"/>
<path id="path596" d="M32.3999 19.5666C30.7199 20.3666 28.6399 20.3666 26.8799 19.3266L22.0799 25.7266C22.7199 26.4466 23.0399 27.3266 23.0399 28.2066C23.0399 29.0066 22.8799 29.8066 22.3999 30.5266C21.1999 32.3666 18.6399 32.9266 16.7999 31.7266C16.6399 31.5666 16.3999 31.4866 16.2399 31.3266C16.2399 31.3266 16.1599 31.2466 16.0799 31.1666C15.9999 31.0866 15.8399 30.9266 15.7599 30.7666C15.7599 30.7666 15.6799 30.6866 15.5999 30.6066C15.5199 30.4466 15.3599 30.2866 15.2799 30.0466C15.2799 30.0466 15.2799 29.9666 15.2799 29.8866C15.2799 29.7266 15.1199 29.5666 15.1199 29.4066C15.1199 29.4066 15.1199 29.3266 15.1199 29.2466C15.1199 29.0866 15.1199 28.8466 15.0399 28.6866C15.0399 28.6866 15.0399 28.6066 15.0399 28.5266C15.0399 28.3666 15.0399 28.1266 15.0399 27.9666C15.0399 27.9666 15.0399 27.9666 15.0399 27.8866C15.0399 27.6466 15.0399 27.4866 15.1999 27.2466C15.1999 27.2466 15.1999 27.1666 15.1999 27.0866C15.1999 26.8466 15.3599 26.6866 15.4399 26.4466L11.5199 23.4866L10.3199 25.0866L5.8399 21.7266L9.1999 17.2466L13.6799 20.6066L12.4799 22.2066L16.3999 25.1666C17.5999 24.1266 19.3599 23.8866 20.8799 24.6866L25.6799 18.2866C23.7599 16.3666 23.2799 13.4066 24.7199 10.9266C24.9599 10.4466 25.3599 10.0466 25.6799 9.6466C23.0399 7.8866 19.9199 6.8466 16.4799 6.7666C7.4399 6.7666 0.0799023 14.0466 -9.76563e-05 23.1666C-9.76563e-05 32.2066 7.2799 39.5666 16.3999 39.6466C25.4399 39.6466 32.7999 32.3666 32.8799 23.2466C32.8799 21.8866 32.7199 20.6066 32.3999 19.4066V19.5666Z" fill="var(--fill-0, #EE0C5D)"/>
</g>
</svg>
