<svg preserveAspectRatio="none" width="100%" height="100%" overflow="visible" style="display: block;" viewBox="0 0 108 32" fill="none" xmlns="http://www.w3.org/2000/svg">
<g id="Group">
<path id="Vector" d="M86.475 26.8171H21.5055L26.6875 31.9991L86.475 26.8171ZM96.9038 23.5135V13.1495C96.9038 11.2062 98.2641 9.58686 100.207 9.58686C102.151 9.58686 103.511 11.2062 103.511 13.1495V23.5135H107.527V13.1495C107.527 8.87433 104.612 5.44124 100.337 5.44124C98.3936 5.44124 96.9038 6.54242 96.9038 6.54242V5.82989H92.8878V23.4488H96.9038V23.5135ZM83.6249 5.37646C78.9611 5.37646 75.6575 9.4573 75.6575 14.6393C75.6575 20.0804 79.8032 23.9022 84.0135 23.9022C86.1511 23.9022 88.8069 23.1897 91.0741 19.9509L87.5114 17.8781C84.7909 21.8941 80.1918 19.8861 79.6736 15.8053H91.2036C92.24 9.58685 88.1592 5.37646 83.6249 5.37646ZM87.1228 12.3722H79.9327C80.7748 8.29135 86.3455 8.03225 87.1228 12.3722Z" fill="var(--fill-0, #BF0000)"/>
<path id="Vector_2" d="M74.362 19.3029C73.9733 19.562 73.5199 19.7563 73.0017 19.7563C72.354 19.7563 71.1232 19.2381 71.1232 17.6187V10.04H74.5563V5.82962H71.1232V1.4249H67.1072V5.82962H64.9696V10.04H67.1072V17.6187C67.1072 21.57 70.0868 23.9019 73.0665 23.9019C74.1677 23.9019 75.7223 23.5133 76.953 22.8007L74.362 19.3029ZM59.5932 5.82962V16.1937C59.5932 18.1369 58.233 19.7563 56.2897 19.7563C54.3465 19.7563 52.9862 18.1369 52.9862 16.1937V5.82962H48.9701V16.1937C48.9701 20.4688 51.885 23.9019 56.1602 23.9019C58.1034 23.9019 59.5932 22.8007 59.5932 22.8007V23.4485H63.6093V5.82962H59.5932Z" fill="var(--fill-0, #BF0000)"/>
<path id="Vector_3" d="M41.4562 14.1209L48.3224 5.82967H42.7517L37.8935 11.9833V-9.76563e-05H33.8127V23.5133H37.8935V16.2585L43.8529 23.5133H49.4235L41.4562 14.1209ZM27.5295 5.82967V6.60698C26.2988 5.82967 25.2624 5.37625 23.7725 5.37625C19.2383 5.37625 15.7404 9.52186 15.7404 14.6391C15.7404 19.7563 19.1735 23.902 23.7725 23.902C25.2624 23.902 26.3636 23.4485 27.5295 22.6712V23.4485H31.5456V5.82967H27.5295ZM23.7078 19.6916C21.4406 19.6916 19.8213 17.4892 19.8213 14.7039C19.8213 11.9185 21.4406 9.71619 23.7078 9.71619C25.9749 9.71619 27.5295 11.9185 27.5295 14.7039C27.5943 17.4892 25.9749 19.6916 23.7078 19.6916Z" fill="var(--fill-0, #BF0000)"/>
<path id="Vector_4" d="M4.21038 23.5133V16.6471H7.12527L12.2425 23.4485H17.4893L11.2709 15.222C13.2141 13.8617 14.4449 11.5946 14.4449 9.0036C14.4449 4.79321 11.0118 1.4249 6.86617 1.4249H-9.15527e-06V23.4485H4.21038V23.5133ZM4.21038 5.63529H6.93094C8.80942 5.63529 10.364 7.1899 10.364 9.06838C10.364 10.9469 8.80942 12.5015 6.93094 12.5015H4.21038V5.63529Z" fill="var(--fill-0, #BF0000)"/>
</g>
</svg>
