<svg preserveAspectRatio="none" width="100%" height="100%" overflow="visible" style="display: block;" viewBox="0 0 69 48" fill="none" xmlns="http://www.w3.org/2000/svg">
<g id="Group">
<path id="Vector" d="M28.38 5.20617C30.5794 2.91443 33.6415 1.49315 37.0281 1.49315C41.53 1.49315 45.4577 4.00347 47.5493 7.7301C49.367 6.91794 51.3789 6.46619 53.4958 6.46619C61.6155 6.46619 68.1983 13.1063 68.1983 21.2969C68.1983 29.4885 61.6155 36.1286 53.4958 36.1286C52.5049 36.1286 51.5363 36.0295 50.5998 35.8401C48.7579 39.1256 45.2479 41.3455 41.2191 41.3455C39.5326 41.3455 37.9374 40.9559 36.5171 40.2633C34.6499 44.6553 30.2996 47.735 25.2294 47.735C19.9494 47.735 15.4495 44.394 13.7222 39.7085C12.9673 39.8688 12.1853 39.9524 11.3828 39.9524C5.09632 39.9524 -9.76563e-05 34.8035 -9.76563e-05 28.4509C-9.76563e-05 24.1939 2.2897 20.477 5.69185 18.4883C4.9914 16.8766 4.60184 15.0979 4.60184 13.2277C4.60184 5.92216 10.5328 -2.8181e-05 17.8481 -2.8181e-05C22.143 -2.8181e-05 25.96 2.04204 28.38 5.20617Z" fill="var(--fill-0, #00A1E0)"/>
<path id="Vector_2" d="M9.87781 24.7541C9.83507 24.8658 9.89336 24.8891 9.90696 24.9085C10.0352 25.0018 10.1654 25.0688 10.2965 25.1436C10.9921 25.5128 11.6488 25.6206 12.3357 25.6206C13.7346 25.6206 14.6031 24.8765 14.6031 23.6786V23.6553C14.6031 22.5478 13.6229 22.1456 12.7029 21.8552L12.5834 21.8163C11.8898 21.5909 11.2913 21.3966 11.2913 20.94V20.9157C11.2913 20.5252 11.6411 20.2376 12.1832 20.2376C12.7855 20.2376 13.5005 20.4378 13.961 20.6923C13.961 20.6923 14.096 20.7797 14.1456 20.6486C14.1728 20.5786 14.4059 19.951 14.4302 19.883C14.4564 19.8092 14.4098 19.7548 14.3622 19.7257C13.8366 19.406 13.11 19.1874 12.358 19.1874L12.2181 19.1884C10.9377 19.1884 10.0439 19.9617 10.0439 21.0702V21.0935C10.0439 22.2622 11.03 22.6411 11.9539 22.9053L12.1025 22.951C12.7758 23.1579 13.3557 23.3357 13.3557 23.8098V23.8331C13.3557 24.2664 12.9788 24.5889 12.3707 24.5889C12.1346 24.5889 11.3817 24.5841 10.5685 24.0701C10.4704 24.0128 10.4131 23.9711 10.3373 23.9254C10.2975 23.9001 10.1974 23.8564 10.1537 23.9885L9.87781 24.7541Z" fill="var(--fill-0, white)"/>
<path id="Vector_3" d="M30.3577 24.7541C30.315 24.8658 30.3732 24.8891 30.3868 24.9085C30.5151 25.0018 30.6453 25.0688 30.7764 25.1436C31.472 25.5128 32.1287 25.6206 32.8156 25.6206C34.2145 25.6206 35.083 24.8765 35.083 23.6786V23.6553C35.083 22.5478 34.1028 22.1456 33.1828 21.8552L33.0633 21.8163C32.3696 21.5909 31.7712 21.3966 31.7712 20.94V20.9157C31.7712 20.5252 32.1209 20.2376 32.663 20.2376C33.2654 20.2376 33.9804 20.4378 34.4409 20.6923C34.4409 20.6923 34.5759 20.7797 34.6254 20.6486C34.6526 20.5786 34.8858 19.951 34.9101 19.883C34.9363 19.8092 34.8897 19.7548 34.8421 19.7257C34.3165 19.406 33.5898 19.1874 32.8379 19.1874L32.698 19.1884C31.4176 19.1884 30.5238 19.9617 30.5238 21.0702V21.0935C30.5238 22.2622 31.5099 22.6411 32.4338 22.9053L32.5824 22.951C33.2556 23.1579 33.8366 23.3357 33.8366 23.8098V23.8331C33.8366 24.2664 33.4587 24.5889 32.8505 24.5889C32.6145 24.5889 31.8616 24.5841 31.0484 24.0701C30.9503 24.0128 30.892 23.973 30.8182 23.9254C30.7929 23.9089 30.6744 23.8632 30.6336 23.9885L30.3577 24.7541Z" fill="var(--fill-0, white)"/>
<path id="Vector_4" d="M44.3388 22.4077C44.3388 23.0849 44.2125 23.6182 43.9638 23.9952C43.718 24.3682 43.3459 24.5499 42.8271 24.5499C42.3074 24.5499 41.9372 24.3692 41.6953 23.9952C41.4505 23.6192 41.3262 23.0849 41.3262 22.4077C41.3262 21.7316 41.4505 21.1992 41.6953 20.8262C41.9372 20.457 42.3074 20.2773 42.8271 20.2773C43.3459 20.2773 43.718 20.457 43.9647 20.8262C44.2125 21.1992 44.3388 21.7316 44.3388 22.4077ZM45.5065 21.1526C45.3918 20.765 45.2131 20.423 44.9751 20.1384C44.7371 19.8527 44.4359 19.6235 44.0784 19.4564C43.7219 19.2902 43.3002 19.2057 42.8271 19.2057C42.353 19.2057 41.9314 19.2902 41.5749 19.4564C41.2174 19.6235 40.9162 19.8527 40.6772 20.1384C40.4402 20.424 40.2614 20.7659 40.1458 21.1526C40.0322 21.5383 39.9748 21.9599 39.9748 22.4077C39.9748 22.8556 40.0322 23.2782 40.1458 23.6629C40.2614 24.0496 40.4392 24.3915 40.6782 24.6771C40.9162 24.9628 41.2183 25.1911 41.5749 25.3533C41.9324 25.5155 42.353 25.5981 42.8271 25.5981C43.3002 25.5981 43.7209 25.5155 44.0784 25.3533C44.4349 25.1911 44.7371 24.9628 44.9751 24.6771C45.2131 24.3925 45.3918 24.0505 45.5065 23.6629C45.6211 23.2772 45.6784 22.8546 45.6784 22.4077C45.6784 21.9609 45.6211 21.5383 45.5065 21.1526Z" fill="var(--fill-0, white)"/>
<path id="Vector_5" d="M55.0957 24.3691C55.0569 24.2554 54.9471 24.2982 54.9471 24.2982C54.7771 24.3633 54.5964 24.4235 54.404 24.4536C54.2088 24.4837 53.9941 24.4993 53.7638 24.4993C53.1984 24.4993 52.7496 24.3312 52.428 23.999C52.1055 23.6667 51.9248 23.1295 51.9268 22.4028C51.9287 21.7412 52.088 21.2438 52.3746 20.8649C52.6593 20.488 53.0925 20.2947 53.6706 20.2947C54.1524 20.2947 54.5197 20.3501 54.9044 20.4715C54.9044 20.4715 54.9967 20.5113 55.0404 20.3909C55.1424 20.1072 55.2182 19.9041 55.327 19.5923C55.358 19.5039 55.2823 19.466 55.2551 19.4553C55.1035 19.3961 54.746 19.2999 54.4759 19.2591C54.2234 19.2202 53.928 19.1998 53.5997 19.1998C53.1091 19.1998 52.6719 19.2834 52.2979 19.4505C51.9248 19.6166 51.6081 19.8459 51.3575 20.1315C51.1068 20.4171 50.9164 20.7591 50.7891 21.1457C50.6629 21.5314 50.5987 21.955 50.5987 22.4028C50.5987 23.3714 50.8601 24.1544 51.3759 24.7276C51.8928 25.3027 52.669 25.5951 53.6813 25.5951C54.2797 25.5951 54.8937 25.4737 55.3347 25.2998C55.3347 25.2998 55.4193 25.259 55.3823 25.1609L55.0957 24.3691Z" fill="var(--fill-0, white)"/>
<path id="Vector_6" d="M57.1389 21.7591C57.1943 21.3832 57.2982 21.0703 57.4585 20.8265C57.7004 20.4564 58.0696 20.2533 58.5884 20.2533C59.1071 20.2533 59.4501 20.4573 59.6959 20.8265C59.8591 21.0703 59.93 21.3968 59.9582 21.7591H57.1389ZM61.0705 20.9324C60.9714 20.5584 60.7256 20.1805 60.5644 20.0075C60.3098 19.7336 60.0611 19.5422 59.8144 19.4353C59.4918 19.2974 59.1052 19.2061 58.6816 19.2061C58.1881 19.2061 57.7403 19.2886 57.3769 19.4596C57.0126 19.6306 56.7066 19.8637 56.4666 20.1542C56.2267 20.4437 56.046 20.7886 55.9314 21.1801C55.8157 21.5697 55.7575 21.9942 55.7575 22.4421C55.7575 22.8977 55.8177 23.3222 55.9372 23.704C56.0576 24.0887 56.25 24.4278 56.5104 24.7086C56.7697 24.9913 57.1039 25.2128 57.5042 25.3672C57.9015 25.5207 58.3844 25.6004 58.9391 25.5994C60.0806 25.5955 60.6819 25.341 60.9297 25.204C60.9734 25.1797 61.0151 25.137 60.9627 25.0146L60.7043 24.2908C60.6654 24.183 60.5556 24.2228 60.5556 24.2228C60.2729 24.3277 59.8707 24.5162 58.9332 24.5143C58.3202 24.5133 57.8656 24.3326 57.5809 24.0499C57.2885 23.7604 57.1457 23.3349 57.1205 22.7345L61.0734 22.7384C61.0734 22.7384 61.1774 22.7364 61.1881 22.6354C61.192 22.5927 61.3241 21.8232 61.0705 20.9324Z" fill="var(--fill-0, white)"/>
<path id="Vector_7" d="M25.4812 21.7591C25.5376 21.3832 25.6406 21.0703 25.8008 20.8265C26.0427 20.4564 26.4119 20.2533 26.9307 20.2533C27.4495 20.2533 27.7924 20.4573 28.0392 20.8265C28.2014 21.0703 28.2723 21.3968 28.3005 21.7591H25.4812ZM29.4119 20.9324C29.3128 20.5584 29.068 20.1805 28.9067 20.0075C28.6522 19.7336 28.4035 19.5422 28.1567 19.4353C27.8342 19.2974 27.4475 19.2061 27.0239 19.2061C26.5314 19.2061 26.0826 19.2886 25.7192 19.4596C25.3549 19.6306 25.0489 19.8637 24.809 20.1542C24.569 20.4437 24.3883 20.7886 24.2737 21.1801C24.159 21.5697 24.0998 21.9942 24.0998 22.4421C24.0998 22.8977 24.16 23.3222 24.2795 23.704C24.4 24.0887 24.5923 24.4278 24.8527 24.7086C25.1121 24.9913 25.4463 25.2128 25.8465 25.3672C26.2438 25.5207 26.7267 25.6004 27.2814 25.5994C28.4229 25.5955 29.0242 25.341 29.272 25.204C29.3157 25.1797 29.3575 25.137 29.305 25.0146L29.0476 24.2908C29.0077 24.183 28.8979 24.2228 28.8979 24.2228C28.6152 24.3277 28.214 24.5162 27.2746 24.5143C26.6626 24.5133 26.2079 24.3326 25.9233 24.0499C25.6308 23.7604 25.488 23.3349 25.4628 22.7345L29.4158 22.7384C29.4158 22.7384 29.5197 22.7364 29.5304 22.6354C29.5343 22.5927 29.6664 21.8232 29.4119 20.9324Z" fill="var(--fill-0, white)"/>
<path id="Vector_8" d="M16.9369 24.3475C16.7824 24.2241 16.7611 24.193 16.7086 24.1134C16.6309 23.9919 16.5911 23.819 16.5911 23.5994C16.5911 23.2516 16.7057 23.002 16.9437 22.8339C16.9408 22.8349 17.2837 22.5376 18.0901 22.5483C18.6564 22.5561 19.1626 22.6396 19.1626 22.6396V24.4369H19.1636C19.1636 24.4369 18.6613 24.5447 18.0959 24.5787C17.2915 24.6273 16.934 24.3465 16.9369 24.3475ZM18.5097 21.57C18.3494 21.5583 18.1416 21.5515 17.8929 21.5515C17.5538 21.5515 17.2264 21.5943 16.9194 21.6769C16.6105 21.7594 16.3326 21.8887 16.0937 22.0596C15.8537 22.2316 15.6604 22.4511 15.5205 22.7115C15.3806 22.9719 15.3097 23.2789 15.3097 23.6228C15.3097 23.9725 15.3699 24.2766 15.4904 24.5253C15.6108 24.7749 15.7847 24.9828 16.0062 25.1431C16.2258 25.3034 16.4968 25.421 16.8116 25.4919C17.1215 25.5628 17.4732 25.5988 17.8579 25.5988C18.263 25.5988 18.6671 25.5657 19.0586 25.4987C19.4463 25.4326 19.9223 25.3365 20.0544 25.3063C20.1856 25.2753 20.3313 25.2354 20.3313 25.2354C20.4294 25.2111 20.4216 25.1062 20.4216 25.1062L20.4197 21.4913C20.4197 20.6986 20.2079 20.1108 19.7911 19.7465C19.3763 19.3832 18.7652 19.1996 17.9754 19.1996C17.6791 19.1996 17.2021 19.2404 16.9165 19.2977C16.9165 19.2977 16.0529 19.4648 15.6973 19.7426C15.6973 19.7426 15.6196 19.7912 15.6623 19.9L15.9421 20.6519C15.9771 20.7491 16.0713 20.7161 16.0713 20.7161C16.0713 20.7161 16.1014 20.7044 16.1364 20.684C16.8971 20.2702 17.8588 20.2828 17.8588 20.2828C18.2863 20.2828 18.6147 20.3683 18.8362 20.5383C19.0518 20.7034 19.1616 20.9531 19.1616 21.4797V21.6468C18.8216 21.5982 18.5097 21.57 18.5097 21.57Z" fill="var(--fill-0, white)"/>
<path id="Vector_9" d="M50.3922 19.5331C50.4223 19.4437 50.3592 19.401 50.333 19.3913C50.2659 19.365 49.9298 19.2941 49.6704 19.2776C49.174 19.2475 48.8981 19.331 48.6513 19.4418C48.4065 19.5525 48.1345 19.7313 47.9829 19.9343V19.4534C47.9829 19.3864 47.9353 19.333 47.8693 19.333H46.856C46.79 19.333 46.7424 19.3864 46.7424 19.4534V25.3494C46.7424 25.4155 46.7968 25.4699 46.8628 25.4699H47.9013C47.9674 25.4699 48.0208 25.4155 48.0208 25.3494V22.4038C48.0208 22.0084 48.0645 21.614 48.152 21.3663C48.2375 21.1215 48.354 20.9252 48.4978 20.7844C48.6426 20.6445 48.8068 20.5464 48.9865 20.491C49.1701 20.4346 49.3731 20.4162 49.5169 20.4162C49.7238 20.4162 49.9512 20.4696 49.9512 20.4696C50.0269 20.4784 50.0697 20.4317 50.095 20.3627C50.163 20.1821 50.3553 19.6409 50.3922 19.5331Z" fill="var(--fill-0, white)"/>
<path id="Vector_10" d="M40.6441 16.8005C40.5178 16.7617 40.4032 16.7354 40.2536 16.7073C40.102 16.6801 39.9213 16.6665 39.7163 16.6665C39.0013 16.6665 38.4379 16.8685 38.0425 17.2668C37.649 17.6632 37.3819 18.2665 37.2478 19.0602L37.1992 19.3274H36.3016C36.3016 19.3274 36.1927 19.3235 36.1694 19.442L36.0227 20.2648C36.0121 20.3426 36.0461 20.3921 36.151 20.3921H37.0243L36.1383 25.3389C36.0694 25.7372 35.9897 26.0646 35.9013 26.3133C35.8148 26.5581 35.7303 26.7417 35.6254 26.8758C35.5244 27.0041 35.4292 27.0993 35.264 27.1546C35.128 27.2003 34.9706 27.2217 34.7987 27.2217C34.7035 27.2217 34.5762 27.2061 34.482 27.1867C34.3887 27.1682 34.3392 27.1478 34.2682 27.1177C34.2682 27.1177 34.1662 27.0789 34.1254 27.1809C34.0934 27.2654 33.8602 27.9056 33.832 27.9843C33.8048 28.063 33.8437 28.1242 33.8932 28.1426C34.0098 28.1834 34.0963 28.2106 34.2546 28.2485C34.4742 28.3 34.6597 28.3029 34.8336 28.3029C35.197 28.3029 35.5292 28.2514 35.8042 28.1523C36.0801 28.0523 36.321 27.8784 36.5347 27.6433C36.765 27.3888 36.9097 27.1226 37.0477 26.7583C37.1846 26.3988 37.3022 25.9519 37.3955 25.4312L38.2863 20.3921H39.5881C39.5881 20.3921 39.6979 20.396 39.7202 20.2765L39.8679 19.4546C39.8776 19.3759 39.8446 19.3274 39.7387 19.3274H38.4748C38.4816 19.2992 38.5389 18.8542 38.6836 18.4355C38.7458 18.2578 38.8624 18.113 38.9605 18.0139C39.0577 17.9168 39.1694 17.8478 39.2918 17.808C39.4171 17.7671 39.5599 17.7477 39.7163 17.7477C39.8349 17.7477 39.9524 17.7613 40.0408 17.7798C40.1632 17.806 40.2108 17.8196 40.2429 17.8293C40.3721 17.8682 40.3896 17.8303 40.4148 17.7681L40.717 16.9385C40.7481 16.8491 40.6713 16.8112 40.6441 16.8005Z" fill="var(--fill-0, white)"/>
<path id="Vector_11" d="M22.9849 25.3497C22.9849 25.4158 22.9373 25.4692 22.8712 25.4692H21.823C21.757 25.4692 21.7103 25.4158 21.7103 25.3497V16.9133C21.7103 16.8473 21.757 16.7938 21.823 16.7938H22.8712C22.9373 16.7938 22.9849 16.8473 22.9849 16.9133V25.3497Z" fill="var(--fill-0, white)"/>
</g>
</svg>
