<svg preserveAspectRatio="none" width="100%" height="100%" overflow="visible" style="display: block;" viewBox="0 0 169 32" fill="none" xmlns="http://www.w3.org/2000/svg">
<g id="United_Airlines_Logo logo" clip-path="url(#clip0_67_1140)">
<path id="Vector" d="M141.354 4.0892C139.049 4.08786 136.761 4.50686 134.593 5.3274L134.569 5.33707V6.1864C134.7 6.13417 134.925 6.05485 135.254 5.97552C135.419 5.93683 135.583 5.902 135.746 5.87298L135.918 5.84783C138.044 5.52861 139.873 5.98133 140.973 7.30079C143.378 10.1893 141.385 16.123 136.521 20.5534C135.901 21.1184 135.266 21.6291 134.62 22.0876L134.569 22.1225V23.5367C134.765 23.3955 134.961 23.2523 135.153 23.1034C135.417 23.5716 137.179 26.5142 137.21 26.5645C137.341 26.4755 137.72 26.2221 138.18 25.8951C138.807 25.4474 139.413 24.9697 139.997 24.4635L137.308 21.2344C137.58 20.9539 138.491 20.0059 139.214 19.1063C139.384 19.2417 141.624 21.0603 142.52 21.9019C143.214 21.1143 143.858 20.2793 144.446 19.4023C143.21 18.553 140.644 17.0207 140.644 17.0207C141.071 16.3126 141.437 15.6026 141.736 14.9022C141.736 14.9022 144.729 16.1269 145.951 16.7556C146.308 15.9989 146.609 15.2143 146.851 14.4089C145.335 13.7665 142.629 13.0913 142.385 13.0313C142.544 12.42 142.65 11.8241 142.692 11.2495C144.248 11.4226 145.789 11.7123 147.305 12.1162C147.367 11.4912 147.359 10.8607 147.281 10.2377C145.758 9.94574 144.214 9.79104 142.666 9.77526C142.614 9.33392 142.512 8.9007 142.361 8.48482C142.361 8.48482 144.529 8.28555 146.795 8.56414C146.673 8.30439 146.534 8.0536 146.379 7.81348C146.259 7.63933 146.133 7.469 146.002 7.30272C146.002 7.30272 144.086 7.14988 141.866 7.49813C141.668 7.20362 141.438 6.93419 141.18 6.69523C142.412 6.42113 143.669 6.28365 144.929 6.28507C144.37 5.88459 143.79 5.61567 143.79 5.61567C142.223 5.64663 140.579 6.10321 140.448 6.13997C140.001 5.86525 139.652 5.75497 139.609 5.74142L139.605 5.73949L139.607 5.73756C139.735 5.69693 140.945 5.31386 141.833 5.21325H141.829C140.622 5.04687 138.96 5.44348 138.768 5.49185C138.476 5.43404 138.181 5.39078 137.885 5.36222C137.885 5.36222 138.779 5.09137 139.962 4.91725C141.04 4.7586 144.653 4.29427 146.962 7.54649C149.148 10.6265 148.353 15.4052 145.385 19.9885C144.56 21.2785 143.623 22.4858 142.585 23.5948C141.675 24.5834 140.755 25.4385 139.877 26.1679C138.529 27.3031 137.068 28.2819 135.519 29.0874C135.203 29.2634 134.887 29.4298 134.569 29.5885V31.0782C137.105 29.8226 138.607 28.6269 138.607 28.6269L140.742 31.7998C140.742 31.7998 142.396 30.7144 144.056 29.2847L141.498 26.253H141.496C142.446 25.3741 143.338 24.4298 144.167 23.4265C144.167 23.4265 146.821 25.8932 147.111 26.1834C147.954 25.189 148.727 24.1442 149.413 23.055C148.366 22.202 147.296 21.3813 146.204 20.5941C146.204 20.5941 147.285 18.7832 147.725 17.6785C147.725 17.6785 149.475 18.6787 151.13 19.8028C151.534 18.8548 151.871 17.872 152.111 16.8678C151.024 16.181 148.609 15.0531 148.609 15.0531C148.816 14.2018 148.939 13.3699 148.974 12.567C148.974 12.567 150.73 13.1494 152.501 14.08C152.531 13.3117 152.48 12.5423 152.351 11.7854C150.852 11.0309 148.858 10.5201 148.858 10.5201C148.756 9.90047 148.583 9.2962 148.341 8.72085C148.341 8.72085 150.154 9.07684 151.756 9.75785C151.534 9.22555 151.232 8.73326 150.863 8.29909C149.836 7.71094 147.5 7.26403 147.5 7.26403C147.245 6.92576 146.962 6.61235 146.653 6.32764C147.389 6.43405 148.535 6.70684 148.535 6.70684C147.274 6.06065 145.855 5.68919 145.838 5.68338C145.836 5.68338 145.557 5.48991 145.221 5.30225C145.221 5.30225 148.743 6.05871 150.656 7.56971C150.83 7.70514 150.997 7.85798 151.165 8.02823C151.359 8.2217 151.527 8.43839 151.675 8.6512C155.488 14.1128 152.191 24.6376 142.897 31.9971H146.354C146.118 31.7254 145.883 31.4526 145.649 31.1788C146.743 30.1246 147.761 28.9878 148.695 27.7776L150.997 30.1747C151.899 29.1009 152.734 27.9536 153.473 26.7464C153.473 26.7464 152.265 25.5333 150.978 24.3628C152.011 22.6158 152.649 20.8746 152.649 20.8746C152.747 20.95 154 21.9251 155.285 23.1769C155.904 21.7549 156.288 19.944 156.288 19.944C154.95 18.669 153.577 17.7578 153.577 17.7578C153.786 16.7923 153.907 15.8083 153.939 14.819C153.939 14.819 155.394 15.7244 156.651 16.8814C156.666 16.0249 156.588 15.1694 156.418 14.3315C155.17 13.2016 153.786 12.4432 153.786 12.4432C153.784 12.4432 153.651 11.4952 153.207 10.3499L153.218 10.3557C153.303 10.4002 153.965 10.7523 155.133 11.6229C154.222 10.3866 152.654 9.1697 152.654 9.1697C152.5 8.89683 152.329 8.63448 152.143 8.38422C153.429 9.30488 154.604 10.3845 155.643 11.5997C156.028 12.1046 156.381 12.7489 156.654 13.486C156.728 13.6872 156.793 13.8884 156.85 14.0877C157.704 17.1039 157.179 20.4935 156.216 23.2697C155.105 26.4697 153.255 29.4588 151.085 31.9971H155.177C155.575 31.409 155.932 30.8479 156.298 30.2037C156.024 29.7684 154.778 28.2438 154.778 28.2438C155.47 27.0617 156.069 25.8226 156.569 24.5389C156.569 24.5389 157.401 25.5043 158.053 26.4968C158.695 24.891 158.994 23.2156 158.994 23.2156C158.554 22.4475 157.571 21.2557 157.571 21.2557C157.787 20.2348 157.907 19.1941 157.928 18.1486C158.419 18.7638 159.083 19.7351 159.083 19.7351V19.7293C158.957 17.8255 158.018 16.092 157.811 15.7283L157.791 15.6103C157.67 15.0134 157.516 14.4243 157.331 13.8459C158.388 15.4768 159.066 17.3109 159.066 17.3109C159.501 18.4911 159.761 19.9808 159.761 21.602C159.761 22.461 159.597 26.9418 156.327 31.9971H157.362C158.015 30.7291 158.593 29.42 159.092 28.0775C159.105 28.1181 159.331 28.7391 159.497 29.3834C159.844 28.1007 160.092 26.7638 160.231 25.3902C160.186 25.2122 160.094 24.922 160.042 24.7478C160.042 24.7478 160.264 23.5793 160.353 22.2482C160.683 24.764 160.562 27.3222 159.996 29.7916C159.813 30.5519 159.591 31.2987 159.349 31.9971H160.231C160.966 29.78 161.345 27.4429 161.345 25.0942C161.345 13.5112 152.377 4.0892 141.354 4.0892ZM134.569 17.9261V20.7198C135.042 20.3987 135.515 20.0427 135.979 19.6499L134.569 17.9261ZM135.212 6.36246C134.991 6.51695 134.777 6.68089 134.569 6.85387V7.50199C135.164 7.01537 135.791 6.57317 136.445 6.17866C136.03 6.20759 135.618 6.26903 135.212 6.36246ZM137.014 17.3631L134.569 15.5735V14.0451C135.813 12.1936 135.992 10.0674 134.901 9.0304C134.8 8.93363 134.688 8.84866 134.569 8.77696V8.01469L134.589 8.0263C134.589 8.0263 136.147 6.73586 137.384 6.1806C137.683 6.20188 137.97 6.24638 138.241 6.31216C136.391 7.13247 135.025 8.15205 134.931 8.22364C135.121 8.34165 135.293 8.48869 135.317 8.50804C136.516 7.74377 137.786 7.10915 139.108 6.61397C139.376 6.74166 139.635 6.90224 139.859 7.08217C137.709 7.71481 135.643 8.84274 135.643 8.84274C135.759 8.9859 135.863 9.13875 135.951 9.3032C135.963 9.29791 135.975 9.29275 135.986 9.28772C138.188 8.30102 140.524 7.79607 140.524 7.79607C140.707 8.05919 140.859 8.35133 140.973 8.67442C140.973 8.67442 138.875 8.92593 136.177 9.83137C136.295 10.2222 136.328 10.5143 136.328 10.5182C136.328 10.5182 138.873 9.9223 141.219 9.85652C141.251 10.2867 141.239 10.7192 141.186 11.147C139.796 11.0715 136.487 11.2553 136.356 11.265C136.356 11.265 136.345 11.7641 136.221 12.2343C136.221 12.2343 138.639 12.3155 140.838 12.745C140.665 13.3039 140.449 13.8473 140.193 14.3702C138.778 13.9447 137.352 13.5576 135.918 13.2093C135.759 13.6172 135.566 14.0095 135.341 14.3818C135.341 14.3818 138.058 15.6238 139.103 16.2313L139.104 16.2333C138.652 16.9414 137.753 17.9358 137.753 17.9358C137.508 17.7431 137.262 17.5522 137.014 17.3631Z" fill="var(--fill-0, black)"/>
<path id="Vector_2" d="M141.354 4.08986C152.377 4.08986 161.345 13.5118 161.345 25.0948C161.345 27.4435 160.966 29.7807 160.231 31.9997H165.138V-7.66416e-05H134.569V5.33774L134.593 5.32807C136.761 4.50753 139.048 4.08853 141.354 4.08986ZM134.569 14.0458C135.813 12.1943 135.992 10.0681 134.901 9.03107C134.799 8.9343 134.688 8.84933 134.569 8.77763V14.0458ZM140.973 7.30145C139.873 5.98199 138.043 5.52928 135.918 5.8485L135.746 5.87365C135.581 5.90336 135.417 5.93755 135.254 5.97619C134.925 6.05551 134.7 6.13484 134.569 6.18707V6.85454C134.779 6.68042 134.992 6.51597 135.212 6.36313C135.635 6.26639 136.047 6.20642 136.445 6.17933C135.831 6.54692 135.121 7.04414 134.569 7.50266V8.01536L134.589 8.02696C134.589 8.02696 136.147 6.73652 137.384 6.18127C137.683 6.20255 137.969 6.24705 138.241 6.31283C136.391 7.13314 135.025 8.15272 134.931 8.2243C135.121 8.34232 135.293 8.48936 135.317 8.5087C136.516 7.74444 137.786 7.10982 139.108 6.61464C139.376 6.74233 139.635 6.90291 139.858 7.08283C137.709 7.71548 135.642 8.84341 135.642 8.84341C135.759 8.98657 135.862 9.13941 135.951 9.30386C135.963 9.29857 135.974 9.29341 135.986 9.28838C138.188 8.30169 140.524 7.79674 140.524 7.79674C140.707 8.05985 140.858 8.35199 140.973 8.67509C140.973 8.67509 138.875 8.9266 136.177 9.83203C136.295 10.2228 136.328 10.515 136.328 10.5188C136.328 10.5188 138.873 9.92296 141.219 9.85718C141.25 10.2874 141.239 10.7198 141.186 11.1476C139.796 11.0722 136.487 11.256 136.356 11.2656C136.356 11.2656 136.345 11.7648 136.221 12.2349C136.221 12.2349 138.639 12.3162 140.838 12.7457C140.665 13.3045 140.449 13.848 140.193 14.3708C138.778 13.9454 137.352 13.5583 135.918 13.21C135.759 13.6178 135.566 14.0102 135.341 14.3824C135.341 14.3824 138.058 15.6245 139.102 16.232L139.104 16.2339C138.652 16.942 137.753 17.9365 137.753 17.9365C137.508 17.7438 137.262 17.5529 137.014 17.3638L134.569 15.5742V17.9268L135.979 19.6506C135.527 20.0328 135.056 20.3899 134.569 20.7205V22.1231L134.62 22.0883C135.265 21.6298 135.901 21.119 136.52 20.5541C141.385 16.1237 143.378 10.19 140.973 7.30145ZM146.962 7.54716C144.653 4.29494 141.04 4.75927 139.962 4.91791C138.779 5.09204 137.884 5.36289 137.884 5.36289C138.149 5.38804 138.509 5.43835 138.768 5.49252C138.96 5.44415 140.622 5.04754 141.829 5.21392H141.832C140.945 5.31452 139.735 5.69759 139.607 5.73822L139.605 5.74016L139.609 5.74209C139.651 5.75563 140.001 5.86591 140.448 6.14064C140.579 6.10388 142.222 5.64729 143.79 5.61634C143.79 5.61634 144.37 5.88526 144.928 6.28574C143.669 6.28432 142.412 6.4218 141.18 6.6959C141.417 6.91645 141.653 7.1815 141.866 7.49879C144.086 7.15055 146.002 7.30339 146.002 7.30339C146.002 7.30339 146.261 7.63422 146.379 7.81415C146.527 8.03857 146.679 8.3191 146.795 8.56481C144.529 8.28621 142.361 8.48549 142.361 8.48549C142.509 8.88984 142.611 9.32127 142.666 9.77593C142.917 9.77399 144.836 9.77786 147.281 10.2383C147.359 10.8245 147.366 11.4533 147.305 12.1169C145.789 11.713 144.248 11.4233 142.692 11.2502C142.649 11.8248 142.544 12.4207 142.385 13.032C142.629 13.092 145.335 13.7672 146.851 14.4095C146.609 15.2149 146.308 15.9995 145.951 16.7563C144.729 16.1275 141.736 14.9029 141.736 14.9029C141.437 15.6032 141.071 16.3133 140.644 17.0214C140.644 17.0214 143.209 18.5536 144.446 19.403C143.858 20.2799 143.214 21.115 142.52 21.9026C141.624 21.061 139.383 19.2424 139.213 19.107C138.607 19.8441 137.971 20.5542 137.308 21.2351L139.997 24.4641C139.413 24.971 138.807 25.4488 138.18 25.8958C137.72 26.2228 137.341 26.4762 137.21 26.5652C137.178 26.5149 135.417 23.5722 135.153 23.104C134.96 23.253 134.765 23.3962 134.569 23.5374V29.5891C134.887 29.4305 135.203 29.2641 135.519 29.088C137.068 28.2826 138.529 27.3037 139.877 26.1686C140.833 25.3748 141.738 24.5152 142.585 23.5954C143.664 22.4346 144.603 21.2216 145.385 19.9892C148.353 15.4059 149.148 10.6272 146.962 7.54716ZM151.675 8.65187C151.523 8.42858 151.352 8.22008 151.165 8.0289C151.005 7.86479 150.835 7.71163 150.656 7.57038C148.743 6.05938 145.22 5.30292 145.22 5.30292C145.557 5.49058 145.836 5.68405 145.838 5.68405C145.854 5.68986 147.274 6.06132 148.534 6.7075C148.534 6.7075 147.388 6.43471 146.653 6.3283C146.958 6.6069 147.246 6.92999 147.499 7.2647C147.499 7.2647 149.836 7.71161 150.863 8.29976C150.863 8.29976 151.355 8.82986 151.756 9.75851C150.154 9.0775 148.34 8.72152 148.34 8.72152C148.581 9.28645 148.753 9.89201 148.858 10.5208C148.858 10.5208 150.852 11.0315 152.351 11.7861C152.481 12.5309 152.529 13.3009 152.501 14.0806C150.73 13.15 148.974 12.5677 148.974 12.5677C148.933 13.4072 148.811 14.2402 148.608 15.0538C148.608 15.0538 151.024 16.1817 152.111 16.8685C151.866 17.8749 151.538 18.8569 151.129 19.8034C149.475 18.6794 147.725 17.6791 147.725 17.6791C147.285 18.7839 146.204 20.5947 146.204 20.5947C146.231 20.6141 148.032 21.9084 149.412 23.0557C148.718 24.1545 147.949 25.2 147.111 26.1841C146.821 25.8939 144.167 23.4271 144.167 23.4271C143.367 24.3983 142.474 25.3463 141.496 26.2537L144.056 29.2854C142.396 30.7151 140.742 31.8005 140.742 31.8005L138.607 28.6276C138.607 28.6276 137.104 29.8232 134.569 31.0788V31.9997H142.897C152.19 24.6382 155.488 14.1135 151.675 8.65187ZM151.085 31.9997C153.255 29.4595 155.105 26.4704 156.216 23.2704C157.179 20.4941 157.704 17.1045 156.85 14.0884C156.792 13.8853 156.727 13.6846 156.654 13.4867C156.409 12.8087 156.068 12.1729 155.643 11.6003C154.604 10.3852 153.428 9.30554 152.142 8.38488C152.331 8.64026 152.505 8.90338 152.654 9.17037C152.654 9.17037 154.222 10.3873 155.133 11.6236C153.965 10.7529 153.303 10.4008 153.218 10.3563L153.207 10.3505C153.651 11.4959 153.784 12.4439 153.786 12.4439C153.786 12.4439 155.17 13.2023 156.418 14.3321C156.591 15.1679 156.662 16.025 156.65 16.8821C155.394 15.7251 153.939 14.8197 153.939 14.8197C153.907 15.809 153.785 16.793 153.577 17.7585C153.577 17.7585 154.95 18.6697 156.288 19.9447C156.288 19.9447 155.904 21.7555 155.285 23.1775C154.444 22.3634 153.564 21.595 152.649 20.8753C152.649 20.8753 152.011 22.6165 150.978 24.3635C152.264 25.534 153.473 26.7471 153.473 26.7471C152.734 27.9543 151.898 29.1016 150.996 30.1753L148.695 27.7782C147.761 28.9885 146.743 30.1253 145.649 31.1794L146.353 31.9997H151.085ZM155.177 31.9997H156.327C159.597 26.9425 159.761 22.4617 159.761 21.6027C159.761 19.9814 159.501 18.4917 159.066 17.3116C159.066 17.3116 158.388 15.4775 157.331 13.8465C157.445 14.2102 157.667 14.9493 157.791 15.611L157.811 15.729C158.018 16.0927 158.957 17.8262 159.083 19.7299V19.7357C159.083 19.7357 158.419 18.7645 157.928 18.1493C157.907 19.1947 157.787 20.2355 157.571 21.2564C157.571 21.2564 158.554 22.4482 158.994 23.2162C158.994 23.2162 158.695 24.8917 158.053 26.4975C157.401 25.505 156.569 24.5396 156.569 24.5396C156.069 25.8233 155.47 27.0623 154.778 28.2445C154.778 28.2445 156.024 29.769 156.297 30.2044C155.931 30.8486 155.575 31.4097 155.177 31.9997ZM157.362 31.9997C158.015 30.7308 158.593 29.4212 159.092 28.0781C159.105 28.1188 159.33 28.7398 159.497 29.384C159.844 28.1013 160.092 26.7645 160.231 25.3908C160.186 25.2128 160.094 24.9226 160.042 24.7485C160.042 24.7485 160.264 23.58 160.353 22.2489C160.683 24.7647 160.562 27.3229 159.996 29.7923C159.815 30.5389 159.6 31.2756 159.349 31.9997H157.362ZM167.446 29.3666C167.281 29.3666 167.118 29.4007 166.965 29.4668C166.813 29.5329 166.674 29.6298 166.558 29.752C166.441 29.8741 166.348 30.0192 166.285 30.1788C166.222 30.3384 166.19 30.5095 166.19 30.6822C166.19 30.855 166.222 31.0261 166.285 31.1857C166.348 31.3453 166.441 31.4903 166.558 31.6125C166.674 31.7346 166.813 31.8316 166.965 31.8977C167.118 31.9638 167.281 31.9978 167.446 31.9978C167.78 31.9978 168.099 31.8592 168.335 31.6125C168.571 31.3658 168.703 31.0311 168.703 30.6822C168.703 30.3333 168.571 29.9987 168.335 29.752C168.099 29.5052 167.78 29.3666 167.446 29.3666ZM167.446 29.562C167.731 29.5625 168.003 29.6813 168.204 29.8921C168.405 30.1029 168.517 30.3885 168.517 30.6861C168.516 30.9837 168.403 31.2689 168.201 31.479C168 31.6891 167.727 31.8068 167.443 31.8063C167.158 31.8058 166.886 31.687 166.685 31.4762C166.485 31.2654 166.372 30.9798 166.373 30.6822C166.373 30.3846 166.486 30.0994 166.688 29.8893C166.889 29.6793 167.162 29.5615 167.446 29.562ZM166.995 30.0186H167.592C167.823 30.0186 167.977 30.1599 167.977 30.3765C167.977 30.5932 167.842 30.719 167.64 30.7441L168.049 31.3033H167.803L167.422 30.7538H167.182V31.3033H166.995V30.0186ZM167.182 30.2063V30.5739H167.587C167.716 30.5739 167.779 30.5081 167.779 30.392C167.779 30.2701 167.713 30.2063 167.587 30.2063H167.182ZM61.1794 12.2891H67.0903V24.0327H71.6408V12.2891H77.5499V7.96699H61.1794V12.2891ZM88.8468 17.7043H98.3065V14.2954H88.8468V11.9022H99.0366V7.96699H84.2944V24.0327H99.1197V20.0975H88.8468V17.7043ZM110.834 19.7106H114.886C117.851 19.7106 119.187 18.5749 119.187 15.9998C119.187 13.4248 117.851 12.2891 114.886 12.2891H110.834V19.7106ZM106.282 7.96699H115.052C121.15 7.96699 123.948 10.7394 123.948 15.9998C123.948 21.2603 121.15 24.0327 115.052 24.0327H106.282V7.96699ZM49.8843 24.0327H54.4367V7.96699H49.8843V24.0327ZM37.7095 17.3154L29.2331 7.96699H24.7435V24.0327H28.9817V13.8504L38.2325 24.0327H41.9495V7.96699H37.7095V17.3154ZM0.000134111 16.1643V7.96699H4.55253V15.9224C4.55253 18.9831 5.94061 20.2736 8.61328 20.2736C11.2859 20.2736 12.674 18.9831 12.674 15.9224V7.96699H17.2264V16.1643C17.2264 21.891 14.4595 24.3596 8.61328 24.3596C2.76705 24.3596 0.000134111 21.891 0.000134111 16.1643Z" fill="var(--fill-0, white)"/>
</g>
<defs>
<clipPath id="clip0_67_1140">
<rect width="168.726" height="32" fill="white"/>
</clipPath>
</defs>
</svg>
